<mxfile host="app.diagrams.net" modified="2024-03-17T09:05:52.552Z" agent="Mozilla/5.0 (Windows NT 10.0; Win64; x64) AppleWebKit/537.36 (KHTML, like Gecko) Chrome/122.0.0.0 Safari/537.36" etag="_EhaarbnzFrIn7Q6GKTr" version="24.0.7" type="github">
  <diagram name="第 1 页" id="vrJsb_9qp0rfRGP3h5Jq">
    <mxGraphModel dx="1830" dy="507" grid="1" gridSize="10" guides="1" tooltips="1" connect="1" arrows="1" fold="1" page="1" pageScale="1" pageWidth="827" pageHeight="1169" math="0" shadow="0">
      <root>
        <mxCell id="0" />
        <mxCell id="1" parent="0" />
        <mxCell id="a9pvka4E3gZ4myfUrUY7-1" value="" style="rounded=0;whiteSpace=wrap;html=1;" vertex="1" parent="1">
          <mxGeometry x="130" y="80" width="530" height="500" as="geometry" />
        </mxCell>
        <mxCell id="a9pvka4E3gZ4myfUrUY7-2" value="MTS data" style="rounded=1;whiteSpace=wrap;html=1;fillColor=#fff2cc;strokeColor=#d6b656;" vertex="1" parent="1">
          <mxGeometry x="270" y="110" width="80" height="20" as="geometry" />
        </mxCell>
        <mxCell id="a9pvka4E3gZ4myfUrUY7-10" value="" style="group" vertex="1" connectable="0" parent="1">
          <mxGeometry x="230" y="140" width="160" height="120" as="geometry" />
        </mxCell>
        <mxCell id="a9pvka4E3gZ4myfUrUY7-8" value="" style="rounded=1;whiteSpace=wrap;html=1;fillColor=#dae8fc;strokeColor=#6c8ebf;" vertex="1" parent="a9pvka4E3gZ4myfUrUY7-10">
          <mxGeometry width="160" height="120" as="geometry" />
        </mxCell>
        <mxCell id="a9pvka4E3gZ4myfUrUY7-4" value="Instance Normalization" style="rounded=1;whiteSpace=wrap;html=1;fillColor=#d5e8d4;strokeColor=#82b366;" vertex="1" parent="a9pvka4E3gZ4myfUrUY7-10">
          <mxGeometry x="10" y="8.5" width="140" height="20" as="geometry" />
        </mxCell>
        <mxCell id="a9pvka4E3gZ4myfUrUY7-5" value="Channel Independence" style="rounded=1;whiteSpace=wrap;html=1;fillColor=#d5e8d4;strokeColor=#82b366;" vertex="1" parent="a9pvka4E3gZ4myfUrUY7-10">
          <mxGeometry x="10" y="43.5" width="140" height="22.5" as="geometry" />
        </mxCell>
        <mxCell id="a9pvka4E3gZ4myfUrUY7-6" value="Patching" style="rounded=1;whiteSpace=wrap;html=1;fillColor=#d5e8d4;strokeColor=#82b366;" vertex="1" parent="a9pvka4E3gZ4myfUrUY7-10">
          <mxGeometry x="10" y="86" width="140" height="20" as="geometry" />
        </mxCell>
        <mxCell id="a9pvka4E3gZ4myfUrUY7-13" value="" style="shape=image;verticalLabelPosition=bottom;labelBackgroundColor=default;verticalAlign=top;aspect=fixed;imageAspect=0;image=data:image/png,iVBORw0KGgoAAAANSUhEUgAAAacAAAJwCAYAAAAtPK6SAAAAAXNSR0IArs4c6QAAAARnQU1BAACxjwv8YQUAAAAJcEhZcwAADsMAAA7DAcdvqGQAANcuSURBVHhe7J0JXBbF/8c/iAiCoigqKB6AGnglaiKYF4b9vTJB7ad2mZZ5pnmUP7EsMX9eUd5WappI3idQUqgYIMalIJAKKKCAEpeCICr/md19Hp7n4QEeBPUBvm9f4+7OM+zuzM7MZ47v7OoUM0AQBEEQWkQ9aUsQBEEQWgOJE0EQBKF1kDgRBEEQWgeJE0EQBKF1kDgRBEEQWgeJE0EQBKF1kDgRBEEQWgeJE0EQBKF1kDgRBEEQWgeJE0EQBKF1kDgRBEEQWgeJE0EQBKF1kDgRBEEQWgeJE0EQBKF1kDgRBEEQWgeJE0EQBKF1kDgRBEEQWgeJE0EQBKF1kDgRBEEQWgeJE1GNJGKfa2vo6OhAp9NC+N+XvCtNGo58YI56wnlmw/tuseRfU0mDz3RrMV3Mh2JztORdDmknP4QVD69jjqFbYyVfgqg7kDgR1UfkEaw/miruD3BAr0bibuUxg92AXoAO272+GVtOJoreNZjsbCkOaf7I1kS072cxqeekwT8jW9gjiLoEiRNRTRTA/8A6REidnAX/GYGm4u5TYek8GS6COgE+G48gQtjTgOjNGGrOexylnXn3oXCduR77LqRJgQmC0FZInIjqoSAI/rvSIGrTLAx5xUDYe2osnOAyXtqP3Af/SGm/Iu5nw78M7UmL9seRrQsx2cEcjl8HMTklCEJbIXEiqofIYOyQicJ4R/RqKvZ6nh4zOLzmJO1HwPNMhCR81UPwl7OxWVPBIwjiuUPiRFQLEcFHINMmOwdbmFVVmxiWdkOYRIlEnI9FYmXVabwnbj8pRnExdw+Q6rMUjvL7ikBQLA3vEYS2QuJEVANpSIwsmRVy6mYr7SnwKA3BXusxe8JQdJHPCZmji5MrZm/0R9ojKZwiHe3gKu3iaBBis6vSdzKA2fCpmDW2RDUN6ks7MtKCsW/tbLg6dYG5bK7KvAuGTmC9rDNlC1l29BGs/EAhXp0c4Tpzc5nDi4oURG6GayfZtVzhWZYCp/lj88yR8mtYOUzDyqOxZQ5Npl3Yp3xPOlZwHMb+xitYTVpHYH3neuJ514Sz42xEeK3ENAcr8W9ZfKatOILYsgw52L3tWDwNQ7ubl1yLp5lvIg2dEk8Pa1USRBUJKnbX0eG1KnNOxT9dk7zlxBRv6ieMypXpzIZsKg57IgWXE168rqcsjF3x2vBSAUoT7F5y3vGexaznJPGgmPWcilnPSfzNbFax913pJ07UpmIH2d+pdWbFTt+HSYFlPCgO/3ZEsbna8Mz1XMdiwEkt9pwgSx8UuwcLnsXF91i6OZT4O3wdVJwv/ZS6z1Xuj35OxU5m0r6KU/wbkYTiwx9YqQ0rd/1Y3BOl4AIKz+/DpcVLh5iV/hvu+rkXhylfrDjr9NJy081hjndxvAaPjSBUIXEiqk7q4eLJcnGaVHw4VfKXkexZ7KJSaalzC35Xqfl4pT4exayvU8bvalAUpzKc2ZAFxXtjlM+Vus9FbVhlt6D4zwfSHzAenF5YbKY2nMy5s2qfo06cEoo93zGTx83snb3MpwQlcSrXOSiINhPLbxzk5yzXMeEueUyKjYvy3azjmdLfMDR6rmbKf0MQGkLDekTVeVSgMHxjC3PZRJEMC1s49rPFpK89EZSYBVa/i/NAd8Oxaby4nInjGaq62NQMljbSLiOxmtb7pMX6wOdUBBTPZmbrCIduk+C+LwgJWQ+keapiZEVsgquO/A4RLF9Am4YjP62Xz7OZjXbHH0nS3z1IRdDOBXAaayafM1Ml8cc5mPyLaN1o9o4nAndPhqX4kxos4bLmT6Q+kO7J3x2styIRjH1npCHVDB9s/m+wcE6Ow5JTSLgnpTW7pz+/GVFyPwd3wPu6tK+K2Qis+PO2+Hep3ljaT/JnbI4seUYRXutwRNrn8f8zWYp/URbCf5gEcyHZ0rB5r488nQhCY1hmIoiqwXorrP6WWsorpN6CZvAei/xvvwqUfEsI+rqk5+TieVvyLQcNek4yx4fEFDpCZVDGkFyWd/FseW/DrnhdhOSvFuVzzPravWQorB9Lr3tSMAWUek7LVFP0QfGfi0rSBe8cEnpBvCcn/5ue69QMk8YUb3KWfmdu0gFZ30l5WHZTlOQtkbBH4RlJ11Idci0d/6BiN/k5K5cnCIJDPSfi+fAoG7G+O7Dwg6EKE+c6MJ90hDWQpDDVjZK1XjEe3I3B4SWO0o+sz/GFOzwVew8ZsfDZtRDThikbbUw+oOYG72dDehcGYwQce0q7GnB4yybW3xEx62QJs4repKEnbeUYoIudS0mXs0Dst2ZnKLxJY7Qj7KTdEmzRS6EXVKDOCAVNYaKyerqhouGIdC22gwK5KX4EFtrJ0kvmHOH+zB4sURcgcSKePfeDsXKYLbqMmIb1u/zhH/1iBnkMTG3h8s06LJWOAR9ExIqDewUXVjLR7IKRH6zHDj9/PEsr89nfbsYkccwLab8shJtXotAFqa2YDWlapbeFEHUTEiei6lhYyl81pI7Eg+5wk0yxHZZ4l8yDMJe6j/1lmX9agAf3pN1nSiI8v3aTTL8dsNQ7Hg+KZPeYCs8Jam6wvgHrv8gIRnictKsJli5wXz9Jmv9Jw75JC7GvLBNyTpG0lVOAmIgjwoCZgGlT8V7YPck5GaTmlU8RCDop7TIs2d89Pexa8gksJ/x0reSZqrpU/9msz0YQlYPEiag6ShV1LFJVeh1pKT7SHmDeyRbm0jBWdpwPdngFsQpMPC5NNtJuSLuMqlWmjPuJ8F+1EjukQ16p2tnyc6YhzVf0YXeIDp3MxTVQ0lDkvvNqbtDMEnbyoTx/uC9ej6C70pBXAf+79XDtvlKNQIhYTlyB9e+YSZJ+BG9/tk960asaVkzGtI3BSBNOX8DulYn92hJtGtHHVuiZmNkNYTGSiFyHZav+lP6GweLu899ZWCgfipsKRzsFMas0LP5jpV0Wf7dPV8L/huxiDJYGiXyt1aQumHawZACUIDSGtWwIooqUv84p/Fs76bcKXCmDiPBid/n6nqdY51SBM3vnsJrJ/fKd3CCCkbBzpNowJa48U3JGomfxZPMSf5c9CcWyGGpuSj61+NAd+V8VH1YwTy/POXwTrmAMovj8XIo9kyVvCSWjlfF7pTQrLn7A0tpO4ZxlOY0MWQhCBeo5EdWAJWzfkXZZKzo2sUColWTYjXfDpLJsqvs5KJhFq5CWiBh5L8wRth2k3WrAbPRa+GxxkUam7DD5v7JhttI4sHtUh+WUjTg8xbLsAU12wnL7Jh0mYcVqF+mA9Z/eVTe854Kl30wtw8zcElMPLIVLC9kdmMHlW08sdSjzjgQspxyG5xK78u9NAwz6LcCObxXM08ug1Js4CEIDSJyIasAMlj1LbMP8o1XWK1m4wDPiT2yaMQK2Uk1m1s0JU78+jBjf9RgpGQdYGqhUl9cjsE/ahbMdbDV5mWyjpnAqo7bk13Sa4g7P4FQknlgIOwUrObPxnojw34RZo22lytYMtkOmwv1IDHw8Rkp+lioVrSVcdobjyhF3TB0i+zspbot+wp8RS+UWcwaNZBF3QlOF61q+s1ZB4I5g5VFpINDARDyfmQl6TfkJ4VGH4T7FQRIpSziMXwDPy+H4abyKOJo6YUXAbQTtY/fkLAvPMLOVxz1hp0uJv4ABDDpKux1N0FRFTAyaWsrDW1pI81sCBrCb743Ya97s2brAqZssBVi4fmIaHI7gc3bmki9BaI4O7z5J+wTx9FxYCXMHN3GxpfNPiP99Kqw00JLyiPDojV6f8ne9sb7Nt+EIm29XjtkFQRC1Ceo5EdVDTwdMlTWc/XwQnFLVNk8iwn+TmRPYYfIQEiaCqEuQOBHVg4EjnKaUWJ+d+buKrxq67o+jftJ+z0lwqsQiV4Igaj4kTkQ1YQCnCQthJ3VvdpzyV3p3XWVJPLMPPpJZxYg5LmredkAQRG2GxImoPnpOxtIpVuK+ry+CMsTdypOIYL8Y0RC541J8Ol69rRpBELUXMoggCIIgtA7qOREEQRBaB4kTQRAEoXWQOBEEQRBaB4kTQRAEoXWQOBEEQRBaB4kTQRAEoXWQOBEEQRBaB4kTQRAEoXWQOBEEQRBaB4kTQRAEoXWQOBEEQRBaB4kTQRAEoXWQOBEEQRBaB4kTQRAEoXWQOBEEQRBaB4kTQRAEoXU8t48NnvRJlPYIgiCImkh93XoY/np76ejZ8tzE6eDha8i991A6IgiCIGoarc0bPTdxomE9giAIQusgcSIIgiC0DhIngiAIQusgcSIIgiC0DhIngiAIQusgcSIIgiC0DhIngiAIQusgcSIIgiC0DhIngiAIQusgcSIIgiC0DhIngiAIQusgcSIIgiC0DhIngiAIQusgcSIIgiC0DhInohaQgbg/fsbpvy4hX/IhtJiiWIT4/owzsRmSB0GUpmZ8zyn/FuKiApB0MxaXk27BsOXL6GjVBTZdB6Cdib4UqG6TH38Ef13NBZrYY4ijLfQk/7rBJXh/8DaO9vkf1s0ciaaSb3VQlHUJ4WHncP3qJaTq26LHS33RvedAmDeSAhCVJ8sbWz79DOFj9+KnN3pKnmVxD/F/HUb8PemQ09gC7Zq3QJO2Nuw51M7ynxO2Elt8Y2D9xjZM6NFY8n3xPM/vOWm5OBUi9a+V+H7HEdY2VocpbN5YjZlj7WEo+Twt+bdCkFRgAWvrNi+kYq/a9W/hvMfr2H2Z7w/Ee6u3YEBL4Yc6wrMRp4y/v8C6LWLeM7W2h2lBPOJu8aPX8OG338HeRAhGVJbKiJMsrHSoiukrczF5wkfobip5PC33ExCXfA+mVi/D9DnpXXllPsl7ML4+lIF2Ew9i2TBb6Ej+Lxr62KBERgirHLgwWU/Eh18F46dd0XK34avVGGKdgbgTU/G9dwyKpL95OjIQdXwa1rl7I+m5SLUq/PpTn/76d0IQwoSpe4+B7CAA4Vdvif7E03PnCDy5MFnPxcKN0fif2w4sdD+Lrd964r3hFnWsZ6oFcCGTlf9twVj/zQ68N8weRX9vwPfuU+EdXyAFfDpyrmzAujWTEZIieTxzFMq85KNIu2GH8IXbCSx8TXuE6XmjveLEWkwHtnkjp8n7WLhwKezbKXdtDduNxOR5WzCkCRB/aBMu3JF+qIMkRXohjrXm+01+DyNZekRdCCmjp0loSs7NEESxbS+nkbBRGMLTM3kZAyYsRC/qNb049Bujibk9BkzcgSUfj0KTnBAc3bMH8VVroWoXeqZoZ20FwzpsFaC7nCHtP1NiYjNR+PCxdFQxSeeX4tfoDHR/ezVGWRlLvio0aI/WDcPwR2QQCi3GwLGDGC4/9gf8uPs4nnQcAgsjwUtORtAX2HLyGpp17Q1T1vzNifVCQGgIrv4Thls5+tDTv4u065GIv1nIuvgWMGB/I5zvYBga87/JD8GZA+tw2O8ggoLOIDHfHB2tzJRa0iXXH8yur9zueZrrl08sQvZswZXO0zF5sCMM7h9BUGACmvWaAGsmVMrcQsiO+Thxrxte6aCH1LDdOLJvC/4IOoHI6/loZt0dzRpIQRV5koH4i3tx8lcxbBBz1zLqo7FZZzRTuUEx7oEw6GmPVoppFRmNxy3s0L4pHzMpZNfeKb/2tQwjtOpghcb1xXPIyL8TgAveO3DQd69wzaCgMKQ8aQbLdsrpDaTj2vEjiGv9Goa90hkGhZdw+oel+D3VDF1fUtPLST2C3du345ZJf3RuoX4MpzDFG6dDE9CkxzvyfFU+95Bx+QiOHv4Op8+xe2XxvV/PAuatTZSvn38LUec24vCR3TgnxInnIUO0NmsPQ6WA9xB34jP8HGWInl2aIfWPlfjxCEuHyCxY9OyJJrpSsPwEhP+xBUePS+eLvYbHDTujfQvNBro1TuM73ti9dQvutX8d7esnItzXA54n+d+oLwMyilL/wG8HVuKEv3ju+406o12TNIT//gdSbV3wxktmUsgyKLiGv8sJa2gxAO0fsjwfdgY67d9Bz9bKzzP/1h84c2wDjgrlleW1lMcwsLCFqSzfZrE8evYPxF4Lw7XkDOjpGiL3Nit/12NRZNodpg2lcIyc2CM4cWIdfIW4sHjn1EeLNizfqot4ziWEnN6CX4U0Ur6uRnVO/M/Yt/MICtXUYfyZ/XXYQ6qD2L2wvFaob41WrYxVnoGsvHdn5b2+5uW9HBo3boBOHatzVrds6q28IO1pFRlIZZkDsEevzm1ErzIwbW8vzDHEXY1FtuiFotxYhF85ggzFSVSJnIyjiPs7BjkF4vhZ/p2LuHzlEpJy+FE8kq6cZ8fMXb0lt/wqyo1BOPub1MgfsO7LqTh1VTxx0V2W8T0nY9mec0pWYuVfn1Wi/PqF4nH+nZAKr18u8efxexIwwH4gmkAf1l1d2DYWF67EovQIYQYy/gpBeCa7vx3jsOyXU7jLvQtSEH5mJVZ99wPipfuSwyp6728GY9W2DYgtaIN2XV+Gud5dXD76GVaxtFAdThHjnoCMKDGtfk/iiVCAjL+9sPurj1n4BER5flBy7ex4nD86D+v2eIvHEvmXV+KLz2bi2OUMmFsPQI+utmiSHYDTO3h6B5SfNvptWBpcRPjR3QhLL50K8X9vwPkrt6BnVPZEcxMLe1izbdxRFjYlV/Qsk1tCen7usRLht/XZ/dqixf0Q/L7pDSw7FFIy5JzhjR//+zq+9/RDqp4Ve1YsXEEsy0Mz8flXXyBcqbtbiJyUPxB3h4nZiY/xtWcAcp7wdIxE6j0pTsL53sCW3xNgJKQReza5fti9ZhzWeV+qcKibp/GyMtNYOU/j3i2WZn8g4+Yf7Dm+Ac+L4tCxrAx8f6L09YriWR747zwc/StF/O1JJH73eB3rDlXw/CoFz/OjhKGv8/ExUJzVzgj5DMvc5uH3NGMWhsWP9USyw74Q8qW3LKOzxkIsK2/xN8Xcl5oklb8rIbibL8s7hYg/MRkL1rBnVGjL0omdq50+4n6fh2WlnpsU7y8n48ej7Nmb2MK6ZWPc5tedNxPnWX7UpMwXZUSy9C5dhwhxYs/MMzwBei1fZvfRBkU3veDJ0vXrHez5SOFEWHkPZOWgMuVdi6i/tJ+0p1XcYoWQb19G64om9pu0gRXbhOfkPtW8k/kgDywclIGQLUPw49+umLDgI1irHeT9A54/RsL+/RP4ZJCV2EIpjMXpLeNx4Mwm/DV4EIa1EwJWCvNB30nXH1zB9dVRiLgIL+TABd1fEitaPdtBcGryA47+fh4J/8cKhrpznfgcnrZzseQbdi2hgc0L3wdYxSri3yNdMNNeNrt8D1H7P8HReFPYf7wXH9pbiN7D52JCqherGFcKwyk2buw8Sk02llbbYjHg49+x0F5sXBRd24BV37D7cn8DsP4IC93nSsNlrHX349v4MWgtLjqPwMgO4g3rNe2JMYunY4Ctwkz38InoseV1/HjmCKJGDyzHIMEU3e3HAn8fQfi1WxjQSrpvThGrGPxZEe46B73Ke15tXDBh3J/Ycoj1GJaFIGTQdIwa4wIbNdahOSHrsOWvW7AeuxcL3+gptV4XsnqP9aQiZU10lle2fYaQnJcx1m0nRlpL5xm+EOMvr8M6j5+x5YB9aYOOv1mP6epIvPfNTgwwZ3/zhPkJQz38fJ8jBCPx4dL/wb6F9KCHT0GPA2/g+0PbcaHPZhb3sjMTT+M3y0zjoyyNB5VKY+8fV8JmnCdWjHxZNELijZe1k3H06C6ED1A0EmGi+8tGVvW+hvfWeGCAdH9FrNf68+ov2H1XH3qtbWHHtuF3MlhZAFpwz6Sf8eM2b8BxNZZ8OJLlCJFhrw/AgaWzcPSEN/rOd2E9H5bfF7qwZzgPC7b9IQwVjuStEgXyI9nzPXqJPV9P9nxflvdOhg3oie9ZGfA8OxLdxtlD6IQUsV77ng2I489l7WrIi9KTDESd2o58lgylyvxCVn6kYOUixSnHmpXdRexvpCw0bMIiRB34AN/7zsOBbmcVyq8E64GXLu9TpfI+loUXUkzr0PIRTZUxo/K4koHc0o3kaqXXh574UCZMHH1bDBn2Pmu1xeL3KHU9lWdMUSRiA1lF++pAhXmRl2HjxDJnzj5cjitjkrjdR5j5iSyjcljrs58rbNheeLqCMUVWAM6f4ed3wySZMEnomU/E62PZdZI2IOxq6eZXrw934D1JmDh6nQahu7D3Gj78WCZMnDbo5TiSbTNwM72k3afXbqRypSnQBtY9X2Nb1kLMFH3KwtD2NQxhW9X5t6LrIfiL1WDd+9nLKyz1sDQZ+ROWzH4f3VtmIO7cSqz79HUs2/Yz4u9LQQRu4XLQH2zrgteHlFRcHENW8U1mlbjgx3u48SzpJywtESYJwx7v4/VXWK3FxDSqVE+PNQwmLxKFiSMrsex8p+OLYTN2bokwCTRG994TWc8xAFHx5RvGPE0at3vjO3wiEyaO/suwH2DPdlTC32D3d7MYTcZOwasK96dn7oIPFy0V8lq1E3ZLXgfER+5mwmiPN8eUCJOA4UD0HsJ8Lgcg4a4mJZaJStCvTPTex9jhys8X5s7ox55bjncIkqVTFV0/B/8klk6vv1ciTJx6rMH0xlLYt1R8VpVDjJMtJrzzoVyYRNgzd34fvdhe+PkAld4Tg5f3uarlnTW02J5Sedcyas90W1dTGD/9c9eI9q1KDzHKWm05t28JrbbnSdHV8/DJLsaQ3sqm9NY930c7lkX/uhKpvjfZyqq0uayevniO9LvyeBTdjhVMeHvZ2kJl2FugnbU4nJKUUao4qEmrNmj9Ct92galKfahnUMGcTtE95OeLrkjT7rGhPXqPZBe68ivC5eZQrMV45SiL32vo16X84WIZpr0X4pNVwfhi9lz0YiKVynpJq9xYD0gW5aIUpHLLCfYM2jYuOwNmpFwU0rV7R1vRQwlTWHflFXwIUjNUhX4SnF5RSTBGRnqMMIzd4kkK4mJDlF1mAczZb+FqnkuZaJjGpq1Lmz3rGYi99tuZJdfLke7P3tqmtLWZoXGVl36oRV4H3EJGEr+XNnj0r0raMJfzmI+1MDGtaLRW4BZuh7JN1wbIZw0b5XPFI1+ISAIyskR1yrlzuZznXBXYfVzlcRoA63Zq8plJT3TvyrZ8SF31+bWyRnPVdr6a8q5taKk4sQ6yMJkfj5yKUq6oUBynbaI6GficYffxfLmHuLCfWW+NCVNRjHKhydMHX4mQ4/1X5S2YFOKRf1+yq9VVVTIRmajE5WQ8k15jxuUf8KPbYEz7yAFzZ4lu2c+8l6IJ4vxbU8X5N3lPcxS6NStbSEpRrzHa9Watz1VnhV4DS1j8ePwP5PHf7mcggy8VZCWpvPyXkyMOZDUoo8TJKviM+2omKtWQkyGmw/k9U7FujYrb8gPi2G/WhmXPqcmoWhorU8SHHCVycsQWuZGB+rxTrdy7K/YW5HUAeybCwqgj8FRNG+a2nODPgvX+NLm1LNb44M/3yg/YouZcnufYb01ayM9V0XN+ejKQG8O3ZY0m6aOBoDYpyFHq2VfAc6+3NEdLxckC7XgfVWhJCh5lkp8ciX/Ytl17Pgleh7gfgvAzfCcE3ltUC81KnBcC/YywK5pVdmqpV0HpfSIOG9o0Ma32tRg5f3+GVR4bkMHHytcGY8Nm0a14nw85aYaerTOGtddB0gVx2IUP6QWynuaAnvZqe4IVwodmxszFMB0W278SkCYonmbo6Zbu/ShSJBmymjaqWFA4egZiy3ysW8naP1W35LXyZzKqI43LwrCR2DN9qCBYz4qMpIvCWiGbzrbSfF0D6AnziSxeatJFdJ4YYqFBruVm6/x5v7Ia69Weh7nvlqK7ilVu9SNrsJcFExkhrS3QpJa8vURLxYm1VF/iBSQD/mEhShY4ytxCWMAR1iq2RT+b0ovV8grUtAo0t2YvhdqClnmLdepZvmlvVSrvVPf1Fcm54i0I0ICPf5NXKkruv3PBy+cZln5CC/8paNLCWohTfPottT2jjNuXBP92quN0VeYWLp/zRg4+woTJLrA2bQxD1gsQXCWmIcHyhY0jq8STfkZUQgHio35ANiail61mAqAWPQNlYTOxQvumLOddvYV/yxGrJi35sB1wU+1QWyEyUnhvxR7mGr6ewLRlTyG/qz+fJlRXGqvH0LCFcH/xt9XMaVRTGRAovITzfgFsZyDsbWVDtRYw5yN3iEFGluDx9LB4tOAFiT1fTVLa1JzPn1bluZRFC5h34VseJzUZrSgFN8PYtquVsESlNqCl4sQKc8+JGMZqxhzfDTgYpm7Z9j3En/hMeGVPkyGz8aqC5VUTU1uhUg1RmXPJv7IBB06U19y9i3y5+WhpvH9SNRu9h6jAfazCM8WrVlZycSz/+tKBWsq/fgklk/Ddu7QpqVQUXacB6Md6DfjrFKIzNTmnGtq8jFf5M/Dfh4uqk8e8UvAPYZH9CD06V/fQTS5y1a7Uv4ekm5WbwG3X8z/ozhs5gesR4ss8hg+FTYUTHixvhfyBJDXDI0XXziGMD/O8agUz4YFbwbo/E+ecfQiLUTFAKUxAeGSskAeatO8rGISE+x0tbb6b8Qf8fdk5e4yETTnWdYoYdrTHq6xFHx4UoGSCrznVl8bqMGxti25sG3feT/kNCCxNzh9dV+briCpFTgi8t30Cb3YB64mzFV7Z1RjWXcey7R+4cLlyccm+pzrSwBo49qyBw5/vlYqHwOTPmT0XVXnKv+aNuFJiycu8tFsupmhny98Aw/LKX6XN9vlSjdNsW7GhT81Baxfhor4FOneqj/hLJxB6fi+CbufjSWE+ivJSmN9B+O78Cr9eTEAT27mYOdUVrRQXcDY2xKOYg4i8GIQkPQs0fcz+5txqbNodj3aOHXArWR+9X/8/WDSUVQSGeJJ1FueizyDjoRma6t3G1b8S0MDWimVzVp5u/SYsyLQ2a4DTv/mgoJEJdPOuIeqEO34MSEQTx5V4//XOJaPBGl9fCi9c/0yZ1y/FnT9wzPMM7gyZg7f7dhBNWEvRAk10wvFHZACK2o5Bv3Z8fkharNrmNbzOF6uKAUVkix3bOJf8pmuB1s1vIuQvbwRdugZdY3af99KQkfQHDmxaiIDbL2Psoq/haFqS+IW3fhfSynbgTHRWmtfJx62/f0b4bXsMeLM3mkm+AllhOBEQAvM+7+MVYcWhMZ7wxcTXziP1UWd0bNOCpU8IAn6Zg8ORuShk+UA8v/jnpRbhSr4CRsYoStyLkJBoVkmaYqTLQnRtobLatxT3cMP3P1j3w3Ek5mah6BHwICcOsWc2YPuug0htMhIffjQdloLI1We9mBZIv3gCAWe8kaJvjsaP7iI1wQeHt8zDiYL+cOptBQMjK7TWC8G5wBOIik9DAwNDFObcQuo/v+KXbesQZcDOOWcuOsuFs5z04jSwQrOGQTj3pxdCr+bDsLEuHhXeQ9btBNxg5zz1ww7kvvQGLMu0EqpkGpd6RiXIyof4mxQBFt+mD48i6OIfuHLbEM0aFSJHyDdzEGzQB53TbuJOZRbhNtCHQXYC4vli1Whv/H5yHX7duxuRaYboPnE3Zg7rojTnp9faDAbRB3HmzG+4+sAYjes/ROGDdKTejmbPcTt+8s6Abf/u8vJl8CQNkWeDcCkjHyZN9fHvtSNI1WU9WVZsmpi3wr2gg/hT/nwLkf8gAak3LyH89+/wY3RjDOzRHsK6aBbvFvVC8Ne5X/G39FweZMYhynsltu89hab93kNn3tMuVeZvqa1zFJ+BIesO6rJ6JYgJX3w2Sw/9fORkJCD2j6/x08HzMHDk7xntLRo6CJRTLuTlXU1dUA7PcxGu9ooTQ7dZbzg69IbB/ZtIvPA7/o74DUGB3giPisSthn0w5M0v8OHkMTBX7cbqtkDnLp1RkBKA4AD+xgRvxOd3w6hP12BQo0D8EQoVcWIZ0KIzdOMDWGHyQUjgb7j0qDecBoqZV5ZRBs84hgmtAnFi90b8wcJEJT2GzbAv8fF//g8K9XM511/Nrh+kcH0pPKOJxUtlXl+VjIiN2BeRhyFjP0XvVmX3WgwNHyHxjzOIatgbg3pbswyYhWtnDyKuuZoM+TAJkb//jlvtR+J1XplK3gZMrPq9ZIicK7/hjzOsYLDKNYiJbn47F/xn1iq8ZqVSUaWexem/r5YtTnn2cPq/3spDoKUqPlbhWw+Eyb2LrKfhBd/fduD0nyF43O1TfDyiA2uVhsBSOL/45+wE8niVKoSsEm7RMAvBTJwKmkzDuLftUbEthCHMO/ZG40KWJmeOIJgJTxB/Jtdz0cR+Jj6eswg9FdXCsDN6vGyG3LgghFzgz/sEQkLjgW4zMWeyC8yF1kN9NOk8DK+YP0ZKuBdLS35OFi4ikvWY5uLDGZ+jl1KTNx93In/G38lliBOjifVIdr6H7Hw/s/Q5gb9YGvzFzvl3Qi6a9ZmG1/pYw1D2JolSyNI4RLM0zg3DuXMh7LxqxCn1DHvm19Cu7/vo3UZWNbLz2zrDglWCkefF+wq6eBOmA1dg5pTX8OAce16WGogTy5cxwb8hKSkaV64Eie6fNNb2skV3p+mYOPVLDO+m7u0ULWBt/39o9fgaE5CfcSbwCM6d5c/mN9x4YI5e//cOu1djUVA4TWxhoXcZUez3kAssDSMeofMQF1HcG7RHj1f7wyAzAH+f9mLnOsjOxeJz4Q+k67JyOtyVpZOsHNZHs5eGoXO964g6fxzB7Fz8mlEPrDHondUY1a2Z/JolZd67dJ0jpalSA4HXK31YnIpZnP7YKzR0eN1yiWW1rmNXs3rIGaZKebuccsHL+2+/4VYHXt553aAZz1OcasYnMwRYayVf9vcNWMWr2VBSETeNrWJ42QI9PvksLNDjZre8X63XWOWVM6WpjutrC+K9MXRZvJ/X7VUircsk6Wd8/eU6YMJBLBte2RdpKuQ7jZ83o4KwmobTFPn5nibvVEcal8ezPn+FVOIZSvfKrSf11E16PGHnKhDPVWYYGfKw5T+TpyrzivdhyO5D2Hv20FvJ1aLPHh7LWILT/CHyB1ft4XkG5+E0yBHP5PovCPHemHuet1eJtFZPIeIu/owkbjTT9Wne8KyQ7zR+3hWH1TScpsjP9zQPp8ppXAHP+vwVUolnKN1rmaJTr+Rc5QoTRx62/GfyVGVe8T4kr9pGDRIngngK7p9HiHcG0PU/5b+uiCAIrYLESRMqWu9DaC18Vf95tq1NVkwEUReoQXNOBEEQxIuE5pwIgiCIOg2JE0EQBKF1kDgRBEEQWgeJE0EQBKF1kDgRBEEQWgeJE0EQBKF1kDgRBEEQWgeJE0EQBKF1kDgRBEEQWgeJE0EQBKF1PNfXFxUUVuf3mQmCIIjniWnzhs/t9UXPTZwIojbz1Vdf4csvv5SOCIKoKjSsRxDVAP+g9HP6qDRB1AlInAiiivBek+KWIIiqQ+JEEFVEUZRIoAiieiBxIogqwMVIcdqWhvYIonogcSKIKqBOjKj3RBBVh8SJIJ6SskSIek8EUXXIlJwgnhJFceKCNHjwYMHJINNygnh6SJwIooqcPXsWQ4YMEYTpzJkzki9BEFWBhvUIgiAIrYPEiSAIgtA6SJwIgiAIrYPEiSAIgtA6SJwIgiAIrYPEiSAIgtA6SJwIgiAIrYPEiSAIgtA6SJwIgiAIrYPEiSAIgtA6SJwIgiAIrYPEiSAIgtA6nsuLX5/kZUl7BFH7OHf+L+YChf0v/vuZsCWI2kRxwX3o6BsyxaiHekYmku+z5bmI06O0q0yhHktHBEEQRE1ER78xdJu34XuixzOEhvUIgiAIjSguuIfHd2/gSX625PPsIHEiCIIgNKa4qABPslPx+N+beMLE6llB4kQQBEFUmuLCfDzJTBFccWGe5Ft9kDgRBEEQmqFTWjJ47+nxv0lCb6r44QPJt+qQOBEEQRAaUa9RM8GpFan8bDzOuIEnuekofvRQ8n16SJwIgiAIzaini3rGraBr2h46hk0lT2We3M8URepeBoofP5J8Kw+JE0EQBFEpdPQMoNvUHLrNmUg1NJZ8FXjymInTXTxhIlWclwkUP5F+0BwSJ4IgCOKp4AtzdU3aoF4zC7ZvJPmWUPy4CI9z0llP6iae5FXO/JzEiSAIgqgS9Qz44tx2glDp6DWUfEsQzM9zJPPzB7mSb/mQOBEEQRDVAh/i023RAfWamAH1G0i+JQjm51m3RBP0gvuSr3pInAiCIIhqhb9/r34LS9QzbsEO6ku+JXDz8yeZyXiSfRvFD/MlX2VInAiCIIjqh78ktpEp60kxkWrUvAzz8xxxPionHcVFhZKvCIkTQRAE8czQ0a3PelAtoWvaocw3mj/Jy8QTPh91765gRMEhcSIIgiCeOTp6+sJclDDc17CJ5FtCsWB+ngE8EntQJE4EQRDE80PPAPVMWgvWfToGjSRPEW71p6Mv+pE4EQRBEM8dvi5Kt1lb0fy8gWh+rmNU8tYJEieCIAjihSGYn/P5qKbm8l4Th8SJIAiCeOHUU3lXH4kTQRAEoXWQOBEEQRBaB4kTQRAEoXXoFDOk/WfGo7SrwivUay+FiPM9DN8bCiucm1mgZ1sL2Pa2hZm+5EdoMRk4umQuvo22w5KfF2FEc8n7RZEZiV37I6D4HuemHbqgQ6sWsOtqhaZl5Kk0X3dM2BKDfvO3Y7VTY+hI/gRRHfBvOQkfG3wOkDhVC5FY1WYSvpCOlLHAlPVbseE/1jCQfIhKkpeCC5duoamNPWyqVC4KcSM8EomGXTDEprHkJyMWq+xc8cUdW6z+/RA+7fZiq/W0Y/PQdtZp6UgVC4xd5IbVswfCUuW1ZZEbB6Lv/zLw8vLDuPihLYkTUa08T3GiYb3qZNRqJN+KQRF3CSG4dvATDG+Zgl0LpuCboEI881ZAbeUfbwwYPwVfnLsreTwtsfB64wMM8ziH1FIPwxbzfQ7j/LmfX7gwKfL1SSk/MXcvNgBRB1dgvmMBjq79GAMnbseFPCmgRM+PjuDiyVPwm0LCRNRsSJyeFfqN0cFxOvZ84wodnQysuhgr/UBoKwbmtujXUbVHpT0YGJvCxtEVaw7uw55xpkgP+h5zfozEA+l3AX1T9OxlhaalXwRNEDUKEqdnTNNWFuJOei6yVVvruQk4utUdEyZOwTDuPl2LXUEZ0o8lZAdtx1vTt+MM/0bXnRBsXfKJGH7iJ5i7M1JpXoLDw0+Y+D18c9j+pX34SArrEVkghWA8ysCZ/Wul35ib7g4P34RS5+Jkx/lh1adSOOY++s4PcWq+F8bDecjvjYVzP4wzd6Qf5dzDme9YmP8FIIulR1rQPsydLp370+04el1h3q6Q9XS27oLHwQjhMPHsPnjwY+a8rpSEy74RgF3uy+TXHTZxGRbvV0yXQkQe4393CsF8FDsxAFu3iefxOBYLMVXu4cKP7ByfnkKimi5uWvgppTTg9+oVXvpZ4cYplqafYFcc2+fP9zvZfYnPKksMVUUsMPGbtZjXSgeRaw/D99+SG84O38WuvwxeNyQPCU2foXI8eTqGIO2R9COjzLx1SeG5aZq3hLRi98oTXCmtpPtT6RVyKn7WMlLgxeIxwTOB7d9DnO92+f1MWLIPFzLFUKW4EwkvxftQyMM3jnH/Zdh1XTxWRsrXLP+oJD3xlJA4PWOy01OEbU+rFmiqOM6SfArvDhqFCT/Eo2mvgRg+sCds7vrho/EuGLZRuTVccCcGR71jEHd6O4a9PgXfXBRrlQdJfti6bBK6LwlQKpxC+IAEJPpvx+gR7vBlhYuHDb5xTwyQF4lVYweyguSH7K782gPRs/4FfDttFF5hfoqFq+ASO8fQT7Al2QL9WLjhvayRdvATfOGvPMR249hn6M7CfXvduCScLyvM7H5XhStUXEwo0mL9cCYxBb6bpuCV8T8jgkfn0V3E7v8eE8Yvw74kqbItZH4BAfCN5hUMqzijI+HLj5mLTX8o+GX7u6N7/4/xxZm7sBHSsQvM7pyDx6diunABBB4iNe48+7sYCP3XuzG4IJ3HN+6uJE6FSAxlFdH+W0gTjmUU4sJ3k9F29GJ8EVKIDiy9+nXQR+qZ7/Hu6NLPCpm3sCvAD4nR7FkOH4W5J8XnL3tWb3wXIV2vihj1xHAXvnMYF6JL0rcgKRI/nz+MGwqVb9nPUFFcWTw3TkFfeTxZfjSOx1FWwbedclgu2AV3YtXnrUSFvOUyqIy8dVq54hbS6jBiQ5hIsbSacDBe9L8Tj11rP0H3/+xCRInuCs+6x6tlPetzKgKVgRtMWI/eZmXhU1d0/+9J8dr3b+HoHncMeG87glW+dVcQzsvXJLy7NgQPzLuw52yMWJ6H7T7GLvbHHdpZsPx4GF8cCin9DFPPYetalq/1G0N5KSnxtJBBRLUgGUTwOafto2HGvQrv4UYY6xXMYq1Mw0k4cdINw+XziLHwGO2KxSmjsOfEGkxsK3mz1pev+yi8sdUW2//aig8sRTVLO/YJ2s32Q3GxKSau3oUf3paMK/LYeWaMw+I/bbDm9GHM7yoEF8K3neXH9lj4NT9j+2QrCG+u4i3g+uwa/2XX2N0GX53Yif/2LjHTiNszgxXyK1hy0A9fO3JzMBZ2iT3e2DMJx/9ZihGNZOp6D9m5rBAaS4dXdmHg62uR6LoGAd+NgnTbrDUcgMWDZ8Cj69e49osrOgieGfCaPhDvnmK7HVyx59cV8vhzgRsw6ySwyBPJ8+xETw6rNPRGf4+xm87hwNgWkqdIwZVT8MrphymOppIPh7WaP34d7558Dbv//g6TWstuiD0ni8n4YuRqJG0bBXPFxoL8vj5BQMp0OEi/ZfuxCnHKPhSrxi0vAVsXjGbiY8PS0bMkHaV75Wk/5PMNODCnp1hZ8Ur7PyyPhDtjT+j3mGjOPctGZhDB55yW9JI8VZCFGfvd7zgwXkxEWV756oTs7/jz7see90ScuMryoJEQjKH8DHnFPIDdd9q41Tj//WjpWTHuBGCVRy7rqY1CBxb3EkMNMW/9wPKWEHNZ3loyEmP2WOCrk7vY9UtMCuP2fIweS2LwOctbX7G8JSSjPK2AfnN24eTn9lLFfg9H2Xkm7MnAlB8v4IcR4k2W+aynD8N7p5yxWyldpTLJ9swcP8HBHdPRTzgNb2x8gAFrI5TzUyEL/wbLG3dGYvfx1ZjUTnrQrBfou2kbst90w8QOrLwNY+X27nScvvAJhihYTN7YPwOdPj2H+fvCsWZQ7TV9IoOImsqpz9C2TRfocWdlj07jPVHg7IaAE4rCxAgPwLfhwJCFcxWEidMYw0dMYuIWgN9CxRa3ImO/34fdMmHiGNlixrT32U4svvUvPadlNs4Na2TCxOHzEKyF9/Me1uuZ8Qnm91IuRDbOIzGWVdKrAmXnKkS22uEPBWFiXPDbhQvF9vh6vkLlzTEeCJd3WUXiH4DgZMlPDqtMvL5Win8H1hWYyLZpsSkqvZeyMeg6SqWy4ljA4TVntmW9wFTR5+lgFdOhfUgrdsWGL1XiZmSFGR/NZc8qFl/6RpZqSfectwEnZMLEYT2dif+xZ5VyVe+pNEdvqRlelKPJMyxE8Ol9rDq3xfwPmQhJvgItB2LJKlGYFJHlLXkOkvLWLiYoxTPmsrylbOtu4zwKY/ncqzxvldBznif85MLEaYyx01nlz/Z2/X5BnhfKfNbO7FnrlJGuXafj4M8yYeLoo9+bLsK5j94sKWMFYaznc6UYPT+agokyYeLUN8XweVyY+IEthoy3ZYK9Hb6sd1lCCs54B7C0mo7/s6+9wvS8IXGqTljhWeK2CGuYmz9KmmsytICZSkPjRkKsUOA6PL6FM0Ehyu52ASsC6iscOyuLUhZYBp1smaCwCv166Qp9xrvOYi9OkeR4HGWbIfq5uBCscu3EXLGCkJ+Ltf5Hj2Ln2IfpU9ZhV3iGmiGpFCRG83u1QMFtlfMxl1pkxX5jFUcpQ7susGyrEht9fQifIrt4W2NxUoL1VrNzRVdQWA0DAoXxiGA9vOLhfWGnrrHYlQkO314pnfaWnSxKLR0wMGI1JIty7G1WgUt+1cEQU9UKWxH2DEeJz/Cj99eW8Qzv4sZl/gwHwqGrag5TT0V5K1glH/C8JXzBh+ctlchbdiydVuhgLQgIAhLV5wWlZ82Oy0pQS2t0kPcWJVg+E/J54l35udMSI4X7Gt6bl76y6ek8CcPZ1sM3pGQY8UYIjvkXw+y9QRhC2lRtkDhVJ5YDMHPGFMxnbs32kzi/qC3O/PgxPjumXDOnpfAhN9YqXDIFw8arOG74wH7r11iha6IJQgmtmLTb4vyNMHmreu3x7tjFfjNraSyvLMxGrYDf5inocn0XPho9EI37f4zFxxQntzNww5fXDYcxt9T5pmDCdyEsDOtBGIqhNeIOi460qwk3/Lfj3aEDhd5qC1vRdV8spnGVyGSVNt/qMmERPFSQiWnAv5US0wIFA4OqkHZXbPmbNSm/RjQb9bXwDG3LeYZprOFfRiw1piRvzSuVD4S8xSp/xbylESp5oaxn/VRir1Bm0u7yfAo0ZD3AcuW5gz3GOrHtHj+ckXqkN0L84Ftsi0+de5b/t0SlIHF6Zuij37vTMaMl6wVtPYVIyZdjYCS2zhTXsKi681OthTDVjYGROMY+dnMAHqq5LnfJKwYqDLHow+bNRfj97xBE/eKGKa1j4DFrFEZvjJEqDX0YCHNdn+C8mnOJbh9m2AiBq520U4sx4J3vkeg4F+cvhOBurOii1vBhvSqiy+Im7ZaFYAwxsHnpXsQzJwUR5/kQmT0Gdyuv58QRn+HpUs9QZqlYPcjz1qZzavKA6HjeMnnKGpw/64Hv8mf9CQJUnvXzEwULjJ3kyraH4Rtyj4liCs6cYsredRSGSHO+RPVA4vQsacZaWW+ZQufKLhxRWITboUNPYRuRVN5cQWkesBZ3qRZi6i0Es41ZN2uNKsimrduwfgwQfKP0nFa51G8MG6dJ+MHrZ2wYCIT877wkuBaw6c1bmzFIrOa5lIpJga/nKdZrmY41X49Dv7Z8HkVyRtVQXbW0gC1rXPBhRiUrMxk34nGBb7taPHdxKrh4GFv9WW5wYpWi6oRQWag8wwv/Cyh5huP4lj/Dp+qDCMjzlsJcjkY8UiORqUx8+XacpTQHJj3r4ulYu8IVDkrPmv1cxcfdoeMo4Ry8TFaUAk37O2MG2+46dg5piSHw8gdeHmcvxJ2oPkicnin6GDJ6CnryieBDAfJ1Tk1722MK2x49fE59pVcGq+Yvw1GZmbXAPXHCHqaY0pvP7WhA136Y2FUHabv9cEbFlFYdpUYL6zcQKwM5jeEwkLUkdfxYIU15uuEVDUm8qzpxdQ9pfD1RKe4hIrqcClJhrqF8rNCPNy7ueGLLMdW4FeLCQS+cYWm/ZEjPKg6IVY40vtZo+nZEFPfEms9dlQ011FDxMzSFnQNTK/jhV/YMlbmHC8dCNEsvlrcmsd5D2u4/cEbNGqWyOPrNFyrLDYDIU/uE+avhDraS8IvPunT+kp51FTOeWTd7YS5JKJMq58q+eApnFBtexqzROYf1Vk+dwqof2G+s9zrDufy5KqLykDg9a7qyVpYTqz32H8ZRWa5v5oyZy1k7y38ZBoxfi13+IbhwJRYXgkJwdP9avDt0CrbGli5t/ZrF460xH2Dx/gCcCfLD1k+nY8zuuzAbtwwzBdNvTbDFlIUTYXZnF15//RNhYvcMu3Yku7bvsV2Y+84wzPWXKopMP8ztNwrvfscK4PUMZCfH4uhGdyz2ZS3FRX3lLcWmwydhdS8d+C6ehNeXH4ZvUCQir0QK97jLfTG6j98HtRqiKR1thZZq5NYNWMXul9/n1iC+rkYUD2A7Fq8+jbg7rAK7HgCP6a746LC0clIJa/R8l21YT/bLTadxxv8UPPYoTGyXgjUu3luGia3+hdesD/AWSwdfYYLfj11jNAZ8F4N+izZgSf9nJ03BB6XFwsx9wRc4Dx2ItuO/hy8GYrX3NvnygTJhz/ATB/XPsOeiktZ+h1HT8XUvwPezyRgmPEMWT999+Gj8SAz4KlLN657UwfLWokkwv7sLw4Z9gm/LyFuqp+ppUYgto0djwlbWYAoKgNf/Psbo5axP1+sTfPWmzJxTaiiwZ73of36IVXrWd6veKOowCksW2gllcuAEsUwKZWzxFHQfuwYXlLKTvtAg41a1W1n+qVTvldAYEqdnjgWGjOSt0gCW4cUJY07PD3chavMU2N3ehY/emYIBw1yF98dN+N85ZA+ZhP+zKp3ZRyzbjr/nGOPopx9j2PhPMHd/CgZ/uAZ+36hYTtUvX6iaOrsh6ugiTGoYgcXTprCKxBWvsGu/McsLES0mYlJP6e+b9cMHH3VBxO7FGDZoIFr0c2X3lwC7Gd/jwCw7hd6CLeZ7ncSeGV2Q+OMyvDF+El4ZNkm4xy/O5GL4ewOVzJMNyqzL2XX5MBpzSkGMB+LT7ayHcDcAX7D7fWPWLsQKI0FMPOaIa21ubJyH7nb2aDvIDb7mc3H6+8lCmiinYmMMn/EdpnTIgO//5mHYO4vx7bWSFrva+zJ3xu7fdmLNmw0QvHYxixuf3P8Eiy+2wZRvD+PkvJ4lpvocXdYKl3ZLIT0XA01eLaTfWDiP7561WOwuulW/xTOhHoY1m/ch+cI2fNpTjdGM6rNnz3DKh+qf4cHZCj0+o55YsnsXvh7aEGeEZ8jiOc0dZwxGY8/B92EnS0gN8tblI4sw0SACn5WRt1RztuUHq3H+J2dk/8CNdD7GuxsDYDBqEc7vng47+Q2Kz3r7ZGv2rD9BD4Vn7ceetfKaNY6Ul9Qhm0s0UIyLPvrN24bTiwaiYZBYJoUyFqiPiZt3Yf7LUjAJA8dh+FRafzbWdVApU3ui6tAiXC2ggJvDCnsN0NS4dOEvtbCSm9HyOpWvRi+/rqiYPHYu4dGov7ZIIbJzxTcyGBg2rqByLQlbLfenyCN27nx2bnXnrWSaiGleXpzVILtGZf9OK6jEM5TlCV1pPudpqShvqS6ulj3fiq5bnflfHbL7KPc532ONRHu8td8V+6NWYOzzWZf6wqFFuHUMA9nErqYVHi+UPHx1FEwjTa6tL4WpSJg4JWGrveJgrfYyz1vJNBHTvJI3KLtGZf9OK6jEM5TliaoIE0ejvKWA7PlWdN3qzP/qkN1Hefd94zR27QeK3xqAIXVEmJ43JE4EQRCVJNJ3H3zZdv4YxWUXRHVC4lQTqGCcnyBqJOXNz2k1sThzNJZeV/SMoTkngiAIQiNozokgCIKo05A4EQRBEFoHiRNBEAShdZA4EQRBEFoHiRNBEAShdZA4EQRBEFoHiRNBEAShdZQWpwsrUa+eDnR0ynFfB0mBCYIgCKL6KSVOwX5uwLi9SC0uRnFxKjzHg4lRINvnx0FwZ2FcOlqKgQmCIAjiGVAvzcuV9ZRcsU/4xlgaEqNcsHf9JPG1Iin+OHwQGGstEyNLWI53geuAmvnSEYIgCKJmoAO4Fwc+WQpH4XskaUhLMYOZhfCbMMSn4+CGFUFP4Obw9B8sodcXEQRB1Hye6+uLgoplwsRRECZGWiL/ir87nPrRl7QIgiCI50c9B2mnNGnwP3YEGG8JmmEiCIIgniflmJInIvEg23S3hBl1nIg6zv82/IDvf9yNuGsln9rXhIdFRTjxuz9mfrYcWTm5ki9BEBVRL03aKUVKIoRBPWeHUt/8J4i6RpvWrbDoq9XoPngUejuPxbLV3+Fc8EXpV2WSbqXix70H4PrBbJja2Avb+BtJMGliLIUgCKIidPB1UPGTZaUFiFvxtZ4M7E06jEkK81BPw+M7lWttEoS2cSE0AgNGjReWVChi0doMwwYPhFWHtsh78AB/XQjFeTWiNcl1DPZs+VY6IoiaiY5h0+dmEKHjycrb290D8WSZo+QlErxCB/2/WIHAYjeUPS9FELWHoqIixMXF4Z9//hG2ii4vL08KVZrx48fjwIEDCAgIwKBBgyRf9VhaWsLGxkZwtra28v0WLVpIIQiC4OgUFwcV73vLH1i/VOohpWHfW60x+YDUQhzvidv7J8GcxvaIWoI68bl69SoyMzOlEKVp2rSpICwREXywu4SdO3diypQp0pGIi4sLjh49Kh2JdOjQATdu3JCOSlOvXr1SgsX3ra2thWsTRF3juXymnSCeNwkJCaUEKD4+Hrdv35ZClMbAwACdOnWClZWVIESKW+7eeecdHDp0SAj7yiuv4Pjx4zA3NxeOVfnhhx8wffp06QgICwuDmZmZcF+Kjt8T36allTn7CyMjo1Ki1blzZ0HwGjVqJIUiiNoFiRNRY0lOTlYSH94j4hU976GUl6155a5OfPh+48aNpVCl+eSTT7BhwwZ8/vnnWLVqleRbNrGxsYKgcWF68uSJ8F7KslAULO5kosVddna2FKo0fDhQtcfF48Gdvr6+FIogah4kToRWw3sUiuLDh98SExMFV1BQIIUqTbt27eQVtaL48K2JiYkUqnL4+vqiQYMGGDp0qOSjGfPnz8e3335brjiVR0xMTJnCVVEaKIpWx44dhd4WTwddXV0pFEFoJyROxAvn33//lYsP3/LKVyZA5fUamjdvjm7dugmVrqL4cFcXDAwePXqEK1eu4Nq1a6VEi7vykAmW4hAhT7/27dtLIQjixULiRDwXcnNzlQwR+NCbTIDKm2/hQ1Pdu3dH165dS/WCWrduLYUiVOE9qujoaCGtVYWrvHm3hg0blhoilAlXmzZtpFAE8ewhcSKqDV4hysSHt+Zl4sOFqDxLNQ6vCLkIvfTSS0q9ID40RVQv9+7dE4SL97pUhas8i0XeU5WJluIQId+2atVKCkUQ1QOJE1EpHj9+LBcgXpnJBEgmQoWFhVLI0rRt21YYhuMixE2kFXtBTzsfQ1QvXJy4aHHx4vN7MtHiLj8/XwpVGgsLC6UhQkXh4qJGEJWFxIlQC6+YFI0PFB0foiuLZs2ayQWoS5cuSr0gPT09KRRRE0lPTxeEiztVIw1ujVgWXLBUhwhlAtakSRMpFEEoQ+JUh+FCc/36daX5H5m7c+eOFKo03GKNi49MhHjlIxMhQ0NDKRRRl0hJSZELF+91yYYKuX9Z8PlExSFCReGivESQONVyeOWgKDqKQpSUlCSFUg+vOLgAyURINgxnbEwvMCU0h+c52RwXd7L1aBkZGVKI0nBzf74gWl1vi+/zBhJRuyFxqgXwQq4oQDInEyL+zriy4HMFsl4Qd7KhOD48RxDPGm44oyhcsuHC+/fvSyFKw600VcVKcctfBUXUfEicaih8YScvxDIR4hZYZcFbobLej0yE+FAcWVgR2gwXKtkwoUy8+DA0X99VFty6U1GsvvzyS+kXoqbxfMTp/mVph9AIDSzX3pn2X+z99ZR0xOeB9NCtS0fBde/aiW07Cds2rVtKIYgKqd8U0G8rHTxn8qKkHaIiuPEFXxun6vhibkVcXV3h6Kj8tQWiGjDqLu08W56POP17HHiYLh0Q1cFX60+hm01r5trgJWvqAVULzYa/OHHKOQfk/yMdEISWYtyPiVMP6eDZQuJEEDJInAiifJ6jONHMIUEQBKF1kDgRBEEQWkfdGtZjUX18o+y1FTWN4rwC6BgZSEfKPMnJR70mNWMRo66llrxBnIb1lHiceFfaq3kUP3oC3M2Fjnnprwjz33Tq14x2ua5ZE6ChFq3pojmnZwSL6qOIm9JBLaCBLkvXx9KBMsX1dKDz5Nk/2qqi01APurZa8rZrEiclHkeloLiobLNtbaa4iIlT5j3otCr9eiReKmrKmxzr27aus+JEw3oEQRCE1kHipHXk47JfJI6dT0Oe5EMQBFHXqKPiVIi480wAfEqc94WbuJyUW9Yo2XMkF3F7A7HzMrsXyedF8jAxEl+vOIyv/6w9c3VEZXiE5LAopbJy7HwCLl/PRF7Zb8XSkHwE7z6MxSsCEVr2C060l6IMHPNg9+8RhfK/O0w8DXVTnDJv4ugOJgD7S9z2rafgtuwXjPvcF95JTz/OnpeSwgqudghLdZB39y5Cr6chNCWPenJ1kgwEbwhQKis7f/KF2wovTFxwHDsjyv58SsXkM+FLQ9z1FKRkSV5PxSOks3NcTin7W2LPhLxcxF9i9x+ZhX+pcFQ7dXtYz8UVx3fPwgnmDm2dgu9mdIfNnQRsXxeEv5+qzOUj9PhxVnCv1pqWlEnvgdi87C3sntQeRpIfUQfp64zdUlk5sX0afvzMHn2QgmPf+eFY+S+3LwdTvLn8LaxZ9SberNIHjzNwzp2Vu+M3UfZ3fJ8BTa3w8Teu+M7DEa9Q4ah2aM5JooGhIaz6DcTHb5kCOVE4Hl6VFmEtQlcfbTuawoS+E0jIMNBHqy59sOA9W3aQhp3BKU89UtCgmSlsWutLRzUPo9ZmsGpWXzoiqhPd5Qxp/9nx4B/gsXb0e5+k5bD7+Rd//Z6AFNsumGjTSMms1ESnAF4Bt5Bu1Un4TSA/F6EXQnF4fwROBv4Df+aupBSjSfsWMJXKVVZMFH7/+xauxN3GzZz6aKCfj5RrrMt/4xFaWRujoRhMPNfZEOw+HInf2XlCrhegvqkJ2hrLMvh9XDkWi8ttrDG2byNkhEViz96/heuGXC9CC+tW8mtCl7UtHpdhLq7zEGEHTmFLcDE69WoBJYPazJvYufMc/ipqDft2yhVDXkwo1u+6hIL2ncBuG0hnPcndF5DQqB26tlAohPmZCPYJxvYTl4X08I+9j4YtmyvEQ4KH8/sbe4+K8fWP/RePDUxh3UJUOx09XdRroSXfh2rYCaj/gr7MWngTKFJ+cemLpvgOa6A9yVXIj81L8jGjgUERbvByZNIOIxV/U8nj/oGJuJbfAG3Nm6KRUiOnEHG/BeC7s0Xo2qs5pNIm5cFkNLSzQOu8FHjvD8Se0zHsPLeRYdAEnVo3hK4Q8hESLlzGucu3cSX6Dm7rsnJXcA8JrNxd/bc+Ew1d6DZSvw4w/1IIvt5zFY8tLWHdWPIUyEfo/j+w5UKx0j0J5KfgwA9ncCK/JQZ04LHNRfBuf+y92RC9bIwhN/h+nI/LfwZjpyz+kXfwoFELdJbyvBweLvAiDsjqFRYuV7cx2rL4yc5VrwW7OVZGtAZ9C/bgn8+7PKnnpMLDAnHc2qSeVMnm38T2z3/B1wdvIquVGfp0aw+rxnkI9fHH4qUB8onc+3dSEBqdhgSmfUyqEB99kx0zd/UekxuJuwnY+CU71954pOiZwKZ9Y+RdjcCqpfuwN0ZlnutxFvx+OoBZu69CWCFWyAqCfwAWfxeKuAIhRAXoo1GDTFw+fxlhKku7sq7G4NjFFPgFMhGW/EQKEft3CIKvGMFE9jmne5nwvpiA+FwFS5GiDBxY74VVf95Dq47tWZqYoW1OLFapDqvcvYr1n7Nwv2WhkTwcS4PV++F2Mo1djajRFD0W5yH1FBokwjNXyOPdTNGqMAPee0/hwy/9Eay0rvcx0uOZ8J3PZSWmhIe5d1kezET65VC4fXEcx5LEfllWSiz2bjiOjRdkoxqPkZnMy9ldJPPDnLuIk8pdxK18Jl1lY2Ski5QrsfC+nCGse5KTycqFbwK7J3ZfaZKfRN4/CdjLyk2zJrIxvHwkn0lAcEq+Ql7OR/AOlr/3skLXnud5Vl/UY6K2OgZxUgiBgjQc+GYX3H5KwH2FcEc3eGEe86M3kZI4qfAIcVeusq0hnK2lleV6RrAZPwa7PSbhi/fs8eaInvhgxiSs+cgKOjlR8LuSLwRrO3g43Bc7Y8JL/MgWHywew46Zm2ULcVlnPs4d8IXfHTO87fYONs8fiLffcoL7yknYPM0aDVQ6HAgLhXeGLVb/b5J4nmUTscbFDDrXQ3A0UrxmRdh07Q4TZCA0UXGIshDxrJAJXInHZcVSUHQXl/3ZdoAFbMt5uURedAw8rwMjp47EHJeeLE3sMX3BO/B6tz1KPlGYgWPb/HAOnbFg2RiFcBPwxQjg8qFQBKgUfqJmkR7L8g/b9rE1ZfmMIz3zHJbHl0l5fER/zGH7Xp/2hPUd1oA5cFXDeSHWY98ai1aT3sGPLP/wMrB5mTMGNWHlaN9VxAqKoo8+rGy6L+4PZz788VIffCqVuy/HtlXq5ZWiowVGsCKecPku0hXUKe9mGliniZGC4GuK5eYR4q/yz5rYokfHcoYhk65if2A+erw7Ekve4nlerC92b+oOKykIL4Oh+32x9zpPp4lK4dxZGbpz/hz8VBurdZC6LU4PC5GXL7nsDJbpvbHeJx8m/fvjtS6SWuiZYhCrrE1UetatOlujHysQwem5yi2vski/iXMX2XaAHUZ0UlQifbQdMBATOquoU7s+WDKvj4JI1IdNvy7gX1LR+JrtzTCIbS5fVOwhZSEhHOjR14oVFtbKTFQQOlYwz7GNA+vhlDe/+7BQ/RCtUWOFQnv9Bo4yAevhYo9BSm8nYhVKby6a7NrxNK9XY3j8GPdlZSU/F5d9fOG2i/UOOtpjwivSsKz0zK3eGoQJHZXzs9HLdnizL9u5GIswDRslDh+xRk0/hSHfFlZw7s+2rId0p8qWD6aw4Z96Yo3RKIUGWnJSPNDVCg7tgFDWdSrp0WUgLpBt+lrARmkYUIWHj9QbQ7GyIR/2y7wJvzOs3LHG2psq6dTWrjOrV/JxIE6lR1cHqdvidOoUJs34CRO5+2Q/1v+eiUb9BuLLdzvDTAqizKMSMSt8LL4HRUMe3s1EGNs6sFam0jh2WZiZoJXqcLmeLox4CzE9Xyo0j5GVmILLMcouIVNqdemZoQ/rpeDKDcTJCnNSGoKzDdHD2Q6OTZjQ/XNXPuyYcD2endcKjp3LfyefSeeXMJD9rfcOb+w8zwqwmvUu6el3hXts9ZhVZCr3dznzsdCbDM7QrAdIaAFh/pglKyszfoHbflYF9+iJLz7uAxspn6an3BKeeZ+OpqKHEoasJ2/BtilIztCsV2DdSnUusj4aCNdKQ7owfF4BXERV815MprQkgjX2uvZk2xSE3pDlQyZAoflo+pIdxvYxhM7FNMTLfmLlJohd06E3a6hKXmpp3wFvd2QNwj3eWOVzE8nq1m9lZAm9sx56DxGnen9phWjE65VU5aHOukjdFqfBA7HiszFwF9xb+HHrO9g8g3W/VUXh7k0c2LoP7723XSqczC31R7D0sybk3Zd6CboqPaSnQf6+s0LWgj0Ot9XKbsPFbOn3+rDu3B06rC0Xd1McFU9PuMmOOsPGkrUceSvUPwXxwpB+LuIvZ7BWYwfYlIzNqaeZFeZ87ow3W2fi2E+H8d60X/D1/qtIVtCarAyx/ei3p/T9uW0OFYaDbAy16J1hRPl0ZT15eVlxxebvp+PHBf3RR6FXnJWTImwblPHiugYG4vNOv1/VVYAso2myWP7fW6Xz3upoxEgd/wZWFhjJtryBJnixBlVoEjDI2hRW1p2ZRxQuJ4hlTSw3FuhjWcHLlPVMMWGeKz5gvcTg/acwa/YuzNoaicuyIsnIyhRbipePs95nqfsLgB/7zcRYoadVR6nb4tSsBXp0sZCcKVoZqhGOzASsX3EKezMshHF0r63TRLfSCQ5SkBeHIQZ9JN2PglvjXNJyNXqpPUawysL7chrrIeUj7koKip0sYK0nazlexT/cYCL9FoKv8OG+NtDEFqdB68744PMp8Fo1CtMHGyPexw+z1ociXupFNdAX7+FtN2ltjBq3xrkiFSS0BiMT2MjLihnaNi1dVhrUK7/ilr19pVWj51TttrXFIZWy4bVVYU2SoRl6O7Gt/03EMr3LSrzBGk3d0d2S9dBYuRnDys25eD68xnpgYUx4u3ZGD00KR2MzvDnrHRzycMUCFzM8vBAIty/8ECyNXjTQF2/AYcYUteWCu93vtNdshKUWQwYRFZB+OQrnWHd+wlsD4dzRGEaG+pLTrdSrjU1atRCGA+I0nS/SFD3Z/ZQ4/rJyOYYtYPMK2/Ie0r93EXeRFYqXWghzSmLLMR/eMWlIZwUzDKboY1U5s26j1u0xcgprTb9tAVwPQdgN0b9VK3NhG/+vQneKqNWYtOLDdmU980dIT+G9aQu0Na2G0QMNaaBSNoyUGqD6sH7JihVj3kPKFw2F+prBmhcOPdZwHcIE688UxN1NQyjr6lv1aKFRw01Gg2ZmGDRmOL6b1x06OVdx9qqYLkbNjQXjCF4XEGVD4lQBeffUz7zmJd/FnTJVJh/3VcunhRlea8ozezwuP5D8JB7eTkBoFV6ZVD6G6NGbF4WriDqXBm8+NNFBauFy4erL7ik0Ht6sYBa3ewk9NFmpr+YzCg1UhuiMOlrAmW2DA2+SWWwdwaQ9y1tsG+wXU3q5w90EePuybY/O6K5+QrfqpOUjq5ItPxPJsOnc1SjE+bPb62omzSmJwoWceAT7pyGYNdwGd1E3l6aCmrJhZKRi3dfOAoNYORPqAo2WhdRNSJwqwMK6i5BZD+wPQfDtfORlZyLUxxfzdqgziTVEW2tToSV24HAsQmMS4HckQVyDoccq64mdYZITiWVf+OJYGJ8AvYlzx30xa4kvzqU9u7fxmVh2YJVGPg4cD2UFoz2s5M0/cZJaJykSx1jBtHKwUDB3LYtCBO/+BbO2huJcTCay8nOREBaK7XyCvJ09uneQgjW2wsiJZtC57I/F/wuE3yXWAk3KECaAg88HYv3S4/AWpyiI2kKrTnh7nLjcYdV3/vAW8ngKQtnzdlvhh2Djzljwrm0ZxkZVwQRWrJeDpAh4nkrA5UtXceLsLai0AdXDejd9ujOhYGXjgDRyIBsQ4eWmBzeP94lieVuzhluCnxc+XB/A4p6B9Px8JMfEsrIRimIlQyNTOLt0F+oCt2VSXcDKRgJPqwuR2L7+F2y/9KwaqzUHEqcKaNClN9yn2aLt3VCsWrILEz/xwsbLxnj7c2eMVPMyAavBgzDZ1hBxf/jj69W+2Hglj3/jUKBVvyHiuQoTsHMDn/w8hfV/ZsHmLVd83FeWcetD+XUOCtSrL06SKi561IRWbeAgfR/MpIcpLBSGI1t1tIKwNIsJlWMnNS1DXV70FdFHj8F2sEqJwvrVXnhvxi+YtyEEye17YsncPrBVWARv9X9jsGlGT1j/G4mN3x7H4mX7sXj1caw6eBN5Pbqjz/NZaE48N+rDavQo6ZmzSlnI48fx9U+RSH/JHl/wdUoqHz1uoPLSBAHZAng1iPNazCkt7dBHnxHD4dwyH6GHfOH2rR9OpD6RfqsIY/To217cbdIBVuJotEirVnDoKO6a9DFT03ArXVYteveHA26yuO/HhzN2YdZqfwQVdMb05U4YpDDFamQ3EFuW9segBmliXcDKxjyeVlujEN+kOwZZVbKM10LoS7gaw83I+Yyursq4tXoe5heiqMywsnMxneFzRMLeU/CCv4QrxpFRTx9lfC1ejjysSprQl3AlauGXcOXPnM+LqhOhZ4Cs3BnqsXb3i/wSbkEh8gR91KC+KCcsfQmX0ID6LOOoTqiWjTgRW1ZY2blqtrmofLK5AmHilExMa5Z+RM1H/syfkzBxyi93zxGDSuT3yoStQ5A4EQRBEFoHiRNBEAShddS5OacnGfJ3hNd4nmTeR71m6pfqlfebtiF8FkAboDknJZ7crYnfThcpLnqM4nsP1JaB4sdPoMM/N1MDqNdIv87OOdUtcSKI8iBxIojyIYMIgiAIoi5D4kQQBEFoHXV6WO9x/B0g/9m9mYFQj45pI9Qzlz7mqE3QsB5BlA/NOT0fuDgV59CLSZ83XJhInFQgcSJqAo3tgUYvSwfPFhrWIwiCILQOEifiKXiEhAuROOZDbxwniLIouHIR67f4wUf6jAxROUic+HdmIqJYRXsVCWo+Ny4jK6biMHWHh0gOC8TO/XeR+ewHhYkXThES/c6yivYiIsQPKqslLbDiMHWJ7GvhWLTyECL+lTyISkHixCrauKAAVtHGq//ev0T6tYrDEETt5AGCD3thoXs4YsqpaBMvVhyGIDSFxIkgCILQOkicCIIgCK2DxKkqpF/FxjX+OMetAvIzEXzcH25rjgtu4/EEJKv5BHNeSgIO/CSGkYdTsWbPS78Jv/0l53Jj19h5Pg150u9yhOv7wo9/UVbp+v44cClXDMPIuxqF7ZvFc63aHYW4UkOTuTjH7mljIP+bQiSHhbLzStf+KRTBtyv3TZ+smFjslMfRF9t9SseRqCPcuIgPJ+7BPm4UkJuKIx57MPQ/HoKb5hGB2FKZGsiOi8DK+WIYebiS7CyQfSMaO9xLzjX0P3uwcH8CsqXf5bDrT/vPNuyIY/tK19+Dlf4ZYhhG9sWzmDNdPJfrkrMILvWZ63z4e2yDq0eccA0+vzZbCj90uhc2X6xcBudxXL9km3QvLI7ugfC/I/1ICJA4VYV7ufC7Eovkq0wkvvTCqr+yRP+cTPgd8cWstZFIEH0EHiaG4qulvvDOaAybbu3Rp6MJsv7yxd7LJRk771IAZi4+Jfi17cjCdDOFSc5NHPvpMGbuvgml19ay6/9xJQHpNxOE62+7KKpOVkos9n57GOsvZiLht1OYuTIS8bwSKMxFsH8AFn8Xijgl4cxH+vkU+N2+xUTqAGZtYHHi3k/ykHw+BKuWHMcxjb7R+Ahxxw/jvdX+CC40ZffO7r99fVz+jaXFl8zvrhSMqDv8m4EdAYGICWEi8X/L4XowVfS/cxs71m5Dl//4IVzBqKbgkg9GOG3DppTmcBjYDSN6myH14Da4+edIIVjF7u+FLv03Cn62vVmYgW1hdicK6+evhu2SaGWBEq4fgcToCOH6s06KE2KpcYFwe3s1Jp9MRcQPG2H7ph/C+CXyMnBktxcc3/NBkFJhe4Q0JihHotPgs9EDduO94S8I2EMknmRC9eaXmO2XL3zIsCISj+1Al6HbsO66YUkcfZhoDvPAyjCyuJJB4lQNHPjJD8l9x2DfWle4Lx4D95WTsMTJELgeCO8wmelSIS4HhCAO3TH7Eye8PaIn3nQZiC/WTsPcHrJPtAN6JmZ4+7Mp2L1yFKa7sDAj+mPBSlcs6MtExz8GYWommw/8cA7pA12xZSW7Nrv+5mXOcGCCc26zF+b56OPtVROxht/XMrZ1MYPO9RB4KwiinFP+WJ/aGe6b3hHDfz4JW+Z2hwnSsNMvoXTPTYW8iCD870gabFxcsWlWf3bv7P7fcsbmzweiz51YbDubwooyURdZOX8HYkbPR1bQZ/jz1/n40/8rHH6/CRB2CFt8ZTmL9U5+PY5gDMaOn9+F+0xnLFg0Ed5BHtjhVPJFW4NW1lhxYC1S/edg0yIWZuY4ePp/Bs/RQPruv+Aj6Z8iK+fuQ+LEzxDrz67Nrh9zcipcdXKxb/py9NpiCPeA5Qji93WSbRdZsfs6js0KgijH1wuTdxiz8N8g5iA/12eI8RuHkexcm9cEIqIidbrih8kzL6LYdSqCDirE8bc5WKgTBzePi0ggC1gBEqdqwGoME6XxFih5Ob8+HP6vH/hLPvzCbkEcIXiMPLVf6+BfwJR2GQ3adYZzFwUPAWPY9GQFhvXD0ksNN/DrD8cXo81gJB2jhRkce/MdU0yYPQTOrWVf2KwPm35dmDwC51JzS7fy2vXBmkX26KHwBQuj3j3xdle2cz4el0uNmSiSj9CgKBZXFn6EGYuVAq2tMYiL66lbSj1Jou5gN5+J0hIblLwXxBAuH42BE9vb8dtV1vzhPEK2mvzNwzY1lnYZBl37Ymp/BQ8BUzg42wE6rJd0W/JSwG7+DHjPsSq5flsruAwXdrB0+zuY2lH2uV49OIx9VbivffHqzA7t4MmErSQ8v5/B+HSGDhOe0/C5VL6yBJ/2Y+JrgxXz+8JS8hMw7gaXd5kA+0chWBi2IEicqoFWrY1Lf269lQl6sPyK6ExkCfnVED1e6cx6IVHY9H0g/K7nV9yLKCpEXr7oHpbT2y99fWO0as/KKdu2NVX59LOeLoz4fanDzAStSn1ynZ3jJX6uFCRLo5bqyUXyRbbpWh9511JwOUbRZeK+oLeZasWVqP1YdjJFqazVwVwQAQSkQuzsGMNpVF+Y4Symvn8IO8JyoWbaVpnCfGTniq6AD1KUoQ2lr28Ky668IJjCtq1K6dXXUxBRVdrBstQbrvTQpVtPts1FbJLK5JgSGUi8wntjzVFwKw7+gcou9ZE5+42J6x3qOnFInJ41LC/KRMik7xC4z+iJtrcjsXHFLoxbdAo7L2SWGi5LvxSK9Ut34Y1pP2HiDNHN2vWi+xz5vPNXNplMnPj2SihWrT4ONxW3/Sz7rYkRjErVUESd5w7kImQ2+l34b3FGl2t+mDZ6ERo6bsTCY6mlDB0S/X0w2WkRdCznw8RGdF0WRWg05/MsKSivjDDxSvTl20DMmeCBoeOVHTe2AFjvrszWY92CxIn1aFqxBosOk5Cyeyf5yKqW9/TUR9t+/eHuMQ2bPx0I5+Z3cWyrF746mSEXsKyLflj8bQjSbfphzbpp8Noqus1T+LCeFmOgj2Z829cZu3fPwgl1bsNA9FEdsSRqAMawtOYV5gM8KPPtD7lITZR2q4QebN8chz9DPRCzdyKmtknC+pnLMWJjslzA0k7uQP93jiPR8U0EhnggK050MWvtWDnWZvRgwIfIMQaBt7aj+LY69xlm2wqB6zwkTgyTZhbs/xTEpZRR8ooyER/Ntu3M0VaogVV4rMbUmvUk4vm2fzO0Ui0xuvpo+3J3zFk0BtNZZo07dEOai8lF6NmryEIfTHnbFjYt+HyU6Bo9jx4Ha/WVHmrMR3oKHy3pjLamkpc6DI3Qqh3b/pNL79urhZi1fon9H4cL6my/OYW3ER7Atl2tYctHp1R5pGYQOzUD4Xw7zlx5/oVT3xC2ToPxk9en2DQQuLAqChHCDxnw9ryItOIRWO/eH45t+XyU6Ez4pOszVyf1LdjERF6CjWFnqToXpkhz2PbhN5iERDVGG4QyJE6MVradwe0H/I6F4u9Sa4AeIc4nBAdygD5DrVinuzTB+8/gwHVlgUq4GIULxexvbE1hIvmV6pnp1lcRnYfIuiXtKlGI+JvljWVXE2GB2HgyTVmgkq7Cm88l9bCAVblfuTBFDwdT6OREISi6cuuiCO3Hsn9fjGDbHR6+8Ck1b1iE4C3HsfIOMOJ9O9ipEYgj7r9gZahyAYg4eQZH2HaEowXMRC9x3kiR+nqi6Mh5gLQ4dVNL+QiPzihzzqn68MHk+RFQ6iRmRmPfHlZBtHwVDjblqaMhHAc4sm0E9vnTuoqKIHHitOqEt9+ygElSJFYsPY6NR2IRHJOC0AtR2LnZC4uPpMGk50C8XcpCSMSqxSN4r/DCKp8EXI65iXMHT+ErrzQUd7TH2/2MxcbcvQRsX7AP649fxeXb+ci7m4HgkwHYGcb+3oVV/MKZmsLmVT7uFYpdhxKQnF2IrNs3cWzzAWwMfA6rWNsZ46HfYczaHCnFPwRfrwtk7WUzvD22E1pJwcrCakA/jGiSj2NrZWmRgYSkFFy+dBXHdp/Ch7/cVNMzI2oEHfrC3c0G5lf8MNLJA9PWBuJIYBx8jp3FwunL4bg2AWbOE+E+jjVQpD9RxK7tQ2x+Yzlct0TAP5BV5qs2YuRy1tvoPQYr3mwhBsqMwGz75ZjscRH+13ORnZyMIxu9sMAX6LnIBnZCIDM4vMXLlA8WrIpAzJ18pF2PxvrpKzH1UM5zmHOygtn1bXAcfwg7/OPg73sW097biE3pxpi0YgicKhjhaDp8CNaxlrDP4jUYujwQPoEJiLiSwNIkAjvcd6DL+LOIedETZ1oCiZNAfViNGIPvPuuPQY0z4XfcX5jU/3prAI79o4tBb7Hf5naHVYn1qBKtnJ2xZq4V8n7zhdvqU1h/6iYa9O2PNfP6lPxN4zZw/r8WSPjTD25LdmHiwv1YdSgL1iOGY8koM8narj56jB6DOYNNkH7KF7M++QnvLfFHqIk93D/i641U0EVpPyXqo0FlnrBZdyxYNhwO9yKk+IciVN8KHywdhQlWylZ/DdSlReP2mL7SFR/000Xcfp4W+zFv2XG4fesH7yRDjHSQxZOoeejBbuZ8hB8ch0nNbrMe1B64jvfAyJleWB+ih0lu8xGxYzDslNYQlGA5dSoCd9gh+4dtGDp+IyZvjIbB6HEI2j0CvWQVerOXMPWjtojYvQNDBy6Cib07XFelodfMj3FotpVkbacHp7mf4sfJ5kjcuA1de86H+cDd8DEfA/8NQ2Cuqows28p6ZerRgwErR5rTHes93eDWLALT3vbA0Kle2JFsgwWbP8WO0VJDVIauukLSFgt+XQ7Pme2Q+MMejBy/Gr2cV7M04QuN8zHi3W6wLK/zVYegL+Gq+xJuQSHynvAdXRgZqphiK3I9FG+sCIHDjClY0o/1eB4/Ql7hYyb5+uVYpbEw+aJJj56+PhqUVTC4GTkfBdFj5ypDFKuPNBx47zD2cmOGWdzcnT2u/EIUVRT/8pClBUM1nvQlXDXUtC/h5uUjW3i8emhqXE4GDfNBvTeOY+zmtTj0Jqu8HxUhO59lbF1DNFUarlOEhckVhwANDA1hUFYW5GbkfBhQn52rDFGsPviC3UWYfHIMgm6PgAPzKeDm62xrYMzuUQhTWUri+XziUA3Ql3BfMAYyQ4RKVsy69cW/KzenSmGYK1OYOFyUeLhnLkzqafA08VdElhYVxZOomRjJDBEqmUHrczErT5g4Uhhe6ZeXBXmFzsO9oEqdi5Jwj9Jx5SmJZ40QpucMiRNBEAShdZA4VQXWIyh/zqemwJqnJa8uI4jqg2Wt8ud8ag4G1Lt5rtTpOScUKJu2Es8Rgxc0XlkeNOdEEOXzHOec6rY4EYQiJE4EUT5kEEEQBEHUZZ5fz6lYsM0mqon8/HwYGtKL6qqVxn1ebM+piF7ZXp1QGXkGGFjVsmE9olqJiIjAtm3bsH37dsmHIAhFqIzUfGhYrwbCC90PP/yAmJgYyYcgCEW4KFEZqdmQONUwrl+/LhQ6zvfffw/q+BKEMqplhKiZkDjVMNatWyftQSiAycn0TWeCUGTt2rXyRhuVkZoLiVMNIj09Xd4ilMELIkEQIurKyJo1a6Q9oiZB4lSD4IVMdRhv06ZNyM5W/Yg1QdRN1DXWqIzUTHSXM6R9QovhZrGjR4+WjpSpV68ehg4dKh0RRN2EykjtgkzJawhfffWVtAecPXtWcIrtCjc3N+jq0uu/iboLlZHaBYlTDWTIkCFCwTtz5gwGDx4s+RIEIcPJyUkoH1RGai4050QQBEFoHSROBEEQhNZB4kQQBEFoHSROBEEQhNZB4kQQBEFoHSROBEEQhNZB4kQQBEFoHSROBEEQhNZB4kQQBEFoHc/nDRGP7wF3D7OdR+IxUSXOBv0j7QGDHV+S9ohqQaeB6CrJV+sO42xgDAb374IvF7pKvprCiuCT+9I+QWgzrGyYvSftP1uenzjd+ZXt0JuSCC1Hh7mnyKZfrT+F5etPYvmC0fhywSjJlyBqIeYfSTvPFhrWIwiCILQOEieCIAhC6yBxIgiCILQOEieCIAhC6yBxIgiCILQOEieCqCYGO3aW9giCqCpkSk4QijylKTlB1BnIlJwgCIKoq5A4EQRBEFoHiRNBEAShdZA4EQRBEFoHGUQQhCJVeLeeDHq3HlGrIYMIgqhZ8Be/EgRRPZA4EQRBEFoHiRNBEAShdZA4EQRBEFoHiRNBEAShdZA4EQRBEFoHiRNBEAShddA6J4JQ5CnXOZ0Nuirt0dvJiVrOc1rnROJEEIrQW8kJonxoES5BEARRVyFx0kqKEHHMD+u3RCNR8iEIQrspuHKRlVk/+NyQPIgqUYfFqQixvmeFzCR3+yPgH5aK7EIpyAvjAWJ/O4SF7klI1YIhpoJLfhg1ejVG7k6mES9CLWLFfBb+qZJHHST7WjgWrTyEiH8lD6JK1GFxSsaRqV5MALgISG7+NgwdvRwm9h5YeDpDCvcUZKbCPzABiXnScQ0nOykJPuEJ8InLQTapE6EGXjEvdPdC8G3Jo6aRl4HgwDjEZkrHxAuHhvVGT0Xq7e0o5u6aBxIOjsEIxGH9+zuw/ooUppKkBRzH0PGr4RlbO2pys+ETceWEG1KXd4MJNxggSsHfSq7TerrS28mJGkTcRfSf4AG3gFwaHdASSJwUMTKEZf8R8FzVHzo6CVh4NA4PKKcC9Q1h27stzPSlY4IgiGcMiZMamva0gQvfSc5FtuDDyM2Az/5DmPYfDwyV3DT3QAQrDgOkxmHzFj9s8heHBIMP/yHNZ6mMxfNz7fSCq3Qe1yV+OBKXL/1YmrTAs5g9XbrufB8cuV4k/VIR+fBZxf8mELGSj5zUaCxi55x2KKNUSzE70Ifd2zbsiJM8bkRgzvRtWBmoco+5qTjisUeeHsK9qYsHD7elJL5D5x/CjsBc6Uei9pKBffNZ/vbkmT8fsb4+8vLjuuQsgis1N5MPf49tcPWIE8qkUpmY7oXNF9WXn7Swi1i/ZFtJHmVh1/umokD6HYXJ2MfL6KF48EU1if5n8K00B73vinI54+dayeIjnmsPFu6PQ9oj6UdV7rC6QH7dPVipeE1CI0ic1FFYJIqSvp5wiNxozB64FCNXRSPV0gojBnaDXbMceG/ZA0cnL3jLClnOv/APiEZwdI5wGBsdDR927BMQh0TRiwleBD4czs7lFo5YfTM4dGuO7JDTcHX6Em6BRSpCkQP/TR6wG++HcP73j3MQs/84XMftgWeSGKJ8DGFicBtn9p+Bj8oQZVrIX1h/Kg47Dv2DRKWL5iPo1HEcCWgC89aS17+p2HwqAuF3H5XcHyvUKycvh+vuf2HZuxtLEyvY3g1klUc00qQgAskXMXkgC/dDGkzk4SIwbfwKDN2YQAW2VpOLRFaBH7mdjCPzV6Lrkoui9WleBo7s9oLj+z4I1nhe9hHS4iJwNDoNPhs90Gu8N/yFhuFDJJ5kQvXml5jtl69UfmJ3rob56B3YHG0IO1ZmR/Q2g0HUWSycuhxOP0jGPYU5iD3Pyig7Lyc1OkEqs9GISZeJUxGC2TXt2LncQh7CshvLw01Yg4sJlfn7gaUsalMDfDB0mAfWRz8Qj+MC4Tb1W0w9VrohSJQNiZMaEgPD4c9y0Yj+bWHG51j0m8BxyXykhi6H96oxWDDTGeu2LEfQBjvWQjqLnQGS8tj0x+Ff58NzrrVw+MGX8/AnO/7z148x1Yb75GKfO+uRJFrB/eQ3iNk9Ee5u7+JP/68Q49ELDZkWKk/pnMUyr+ZYH7ISQfw8B9k1t/SF2Z2LWHg4QQpTPg4Dh7A4JMMnUrFg5CM8JEJcbBrA4qpo+lqYBP/dbPuWDRyNRS91ZAf8BbcwYNb6WfhpkTNLkzHYtHclslZ1g5kUhhudrJ+1A/vQF54n5yuEWwrvmcCZVd7wJLPb2o/HDsxK6Y+/zi0Xy8NJlo8XWUEn7DjW+VVyjsfXC5N3GOPrc6z8HORl6zPE+I3DSJ1cbF4TiAiFk5m89CoO+3sg4eS7WMfK7IJFE+Ht9xncugHBW6IQzMMad8MKL3ae5XwoH3CcOxV/CGV2PtydDIXzFIT5YdaqOGDcVCQEfYaf3Fge3v4ZEiLnwL2t1IBVYPPaQFh+uZJdVzxPzMmpmNyKlf3lF8VrEhpB4vSoCFm5+cgWXAb8t7Cu+KJoFPceA7dRpqJY6LfFJFZZm9UX/kKOpX0vYfjvyA0NxyduRLFKmmnCW8Mwq7dipjaE7VsTsbSvaka3w95f38WkttIhw3J4f0xm27S4DOUeSlmwVh4P739SsYeUhghfYMhoO3aFaPhGyrp1DNZy9GQbl0HWaCr6qKUgT+FvFGjaTCzQAmFRWM8EzGnRGKU48PiOGM5Fk7VQQ6k1WevpOgJHfh4BxybSMfTgMPZVOLHCdSSxslaxdqwMTcW0TiVlxaDrYHw6g53symn4XCrJTWb9+8PFRiE/coysMMKZhb2ThESNzN6LEHT6LCLQFgun94Wl5CvQshuWrlLxY7hsmI8fx5pKR4y2dvjAtTLXJDgkTr570MVmPkwEtxRD3VmPwskZpzaPgIORFEaJIknImMvTdO5HpCApFT5s6+JoUW7FX0I7WCpV6gz9BjDh25AMyPJ59vU4+AequOvSGLy+NYbzghvAWoqyP7gSj8N3jOH0wTC4tmQVxMVk+dxaRFg4ky47uNqX021imNnbYxL7280LNmPh/gSkqVkblpiYJAio5SMm+qr3d7sItuy3I8k091TrsTKHpWpZ0tcTy0BiDtIkPSk3H8tRUyaY2HXp1pNtcxGbVEZ+ypM1QPORVdY8kVpykHiZN8S6w7Gr6FMRvSylRq0cPTQU4h+PxDvUFNMUEqeBI3CYDw8I7jPERG5Cwt5xGNlO+l1GcjRWzlwO89azJSFjzmkPjkg/a0J2ptRKrN9A3FaFO0zspN3Ykx4YOl7F7UhAllAO9NDLfhDbRiA4WhzgT4yMZkf26PdyWziMA3R2xyFcEJcMhPsnszTpDgdzIWjZmNthx6GpWND5NtbPXw1zy6UY6X4RMQp1Q1qyOHS4Y4ma+5vuIwydOjRpKIWu+VTXC1+fPKlDFVhhSQMv9uR3pfMJy8dyoyQNKHgs7QjkI2K/F0Y6TodOJ1kDdD5GbqxM+uYiLYBvSw/fVR5WOColjHUbEqcm5nDsbwMnwVnBtqWaTJgagcmjN8It+SW4n1yJrDgP0fm/K1r1vWAc5mwquSeZU1iT1NS+O2ax7eYziayg5yL4fBzwng16sdar40Bnpk4hTLhYgBv/4AgriE6jXyo1VKEOg459se7AWmQFzMGmyaYI37IDXSf7IELqRRkYiU1c95PSOjI1LugDc5VWZs3kywWjcObQAmFbVQLC7+Ns6D0UPqxDIsVwmLNRbT7WbJRBlSJEbNyIXvPDgYlzWKOz5Jzec2pDjqv9kDhpQKL/WexjPZWlyyZiam9TNDU2FF2TyrWmzCzbCcYCQZrOUWlKfb2Se5I5xTVJxu3gOFrqIaUmIegk4GLfDk1ZGTXoacOEKxebAhKQEBkFH7TFiJ4K4+Ua0LRjN8xaOx/+7jbCJLcPFzqGpaW1YOERTkN3leZs2D2s2pUqiNT9/CeSby2nonwsoH4oPTGRGwgZw85SGo4ujIfnKuY3fDw2zenGGp0l5zQxEINohilsx/EtzRc9b0icNCA7U/07WbJjWYaV9tWRlqkyXm5jhaktmf/ucPirmNAWXI+Aj8q6iurDGE7D7YQekv/eeGwutmECZCz2WJhwOTDhSvMJxxZuwdfVHk6ajK0rDMfIMDBuKIiRjKa9bTCVbY8citKKF9jeuP2wTFfe7zLU/cZdeb9xV97vMtT5cbhIrfslDacv5OLfHBoTAms+TZ4fgQTFTmVmNPbtyQFavgoHGykD5jyQz8kqkZeK8H/K7pEm3lE19GGC59iNbSPgKa1fLCEfwcfiNDNMIioNiZMG2PZ6VejxrFxxHEeu5yL7Tip8tmxD709D1BYAs07WYFKAzRtPYId/HI7sZ3/HF7Tqs8p6eV+Y3/XDUOdtWO/LJ31ZwfLYhi4Dt8Ez4cEzs1wz69kdI1gPaaWHDxOgbujVQfqBFT6HATbAFT+s3w3YjbUR7r188nFkyVJ0mekDz8BUpOVmIMLXB7PdI1DcZQyceFnmNLPDzC+tAP89cBx/SEiL4CvJwjvMjuw/hMlOHtgsW+j7HLhxuxA/n8wo5WScDcvFzydK/y57Jqr+3PG/kaHud35NjnBuNb+rOzcXJFWCLt3Hxl/vwPuvHKT9+6waMTUBK5hd34b+E8T85O97FtPe24hN6caYtGIInGS9opZt4eTEtr4H4bYzAYm5+UgMC8TC97+F+wU1xj6d2glD3xFbjmGlTxx8jvlhs7To3HLUSLj3ZrK4aDWGLg+EDzfU4Ncd/yUclyeoF0GiypA4aYBB/xHw9+gP22QfuA5cBJOeyzH1jCm+PjgVs1lPqBRdB2PzEhuYh7EM/LYHXOfHyTOw5Zvv4s9v2bnyI7BwKp/03YjJu9Pg4PYZNo+WejMMgzJfFaTHCh7bMFep0YkOL2EsL6wMM6e2gqWcDMvednAQ9ozhal/KFAqoz/5G2hUxhNNkZ9jFncHb45fD3GYpek09jthuzji0YwQcFO7d7qNPEbPFGb1u+Qlp4ejszoSKpcmqaGQ7DcYITSa3qpEOrRuUcoqo+132TNT9psjT/F7WudXRr3sj9O1qBLPm1TE5/zyQ8qo6dPXE/Ctb6K4x3bHe0w1uzSOE/DR0qhd2JNtgweZPsUOh/PDhuKkb+FqlBtjnthpWNvNhNdoHiUNmwGe5sOhQGeNu+HRbf1jeicayaR4YOfM0YgukpoORFZbuFs/l/8MejOSGGuy6/vr22HuQlQMxlBCnsjCozwWROZXlKETZ6NCXcCsDNyPnrVY+Nq5BoSrMFz6/YWBoyDKn5CdHdi72uzH7XdireRSwFqlgNahriKZqTe9LkIfVNP1eBLx2e4psqvjC16oaRfB5JsXe0wC7RujTxQhNGulKPnWRXOybvghvnxyDwNusAcR8ZPmpwvLDzcgfl1UOVXjEymU+K5f66ua7GNK5NMnvtRb6Eq42Ipuw1bBi5RmcFxy1BaJk8remChOHVwxCPDQoqPKw2ipMVWT5+pPSXvUwuHdjLH7PDEP7GtdxYVKPLD9VWH6MpHCa9FpkRhlljVxI56qzwvQcIXEiCC3EbZo5BvdpDEMDKqJE3YRyPkFoGVyU6uuWzJ4QImXPwxK1ERIngiBqAMZw2bAdT6T5JqL2Q+JEEARBaB0kTgTBUF38ShDEi4XEiajTRF1/gO/2pUtHNYxHT1D86DE5ck/ltB1a50TUSWITC+D/dy7uSt9PeH+0qbj49SnXOZ0NuirtVd/bySuEidOjyxp9EpkgVNBB/V7tpf1K8pzWOZE4EXWKqzcLhAWut+8qvwKIi5MiXKjKG+qryu/VcW4BEifiqSFxEiFxIl4wibcKcSb0HpLSyq70FVk+vbUgEPxdd6rwxbHc3Fv1TQ4yZL0w/rfqRKY6zi1A4kQ8NSROIlUWpyLE+gbCJ1GhtdvcFHYWpujSpy3MaP2D9lOYjPUf7cNh2GPz7sEavFy2+klJfyhU+NeTS3+2l4uCIlwguIDIXtyqikxA1NGhtb4gIGX9Xh3nFpCLUyHizsciTuFP9JqZoK1pY1hbNoMRvVxC+ynKwLFN5xCEzvh4fndYSd7PDhInkSqLUwJWtl4NN+lIGVNM/XY2Nv3HvEa/BuiFkpeB4MgMNLW1gW0zye+pKEJiWDwSjdrBycZQ8pO4E4HJPbdhHwbDO24iRpT/FfhnStq/j3AuLFeYd5Kh1COpKcjEKfMqVs33Q7DkrUQTC0z46P/wdjdqwT019zJxOfkhWlmZoVVVKpmCXMQl5MKorQXaKreFgOwErJ/ni3PF3bFsy0C88sxfj6T94lSzrPVGT0Wq7CuqiR5IODgGI1pmYMen38I9sIgGDZ+WuIvCm8Ldzql+y6ayJGPfGx4Y6hGNVNWH0dIOmwM+Q3jYuBcqTByz5vXx1rBmmDWhJbp3rD2fiYeLK07sniW67VPw3YzusMlJwYG1fvCroQaJ2kDWlRC4rT6McymSx9OSchWfrT6OvVdUvvPGaWqFj79xxXcejs9BmGoGNdeUXN8Qlv1HwHNVf+jo5GLlxWTpB0JbadrRCnbm2vPS1xYm9eE61ARzJ5b1XQfN4W8l12k9Xent5C8UA0NY9RuIj98yZW3kmwhNVFMhElqFUWszWDWjb2rI0F3OkPafHcUPgTzp291PRRbOrw+E/0u9sHB0GzSSfDkGubfwldc/QMde+GRoSzRUeCVZdlwENq8/jmU/nceeQxdwPu4JGtm0g6VSyyQf/h47sPBCI7zuYIrswLP4fOVRrPe8gD1+N3C/lTX6tlGuULMDfTB5cQwaO9ugxT9nMWfeUXx/6BIyOr4MRzNpgP9RLvwPnsRK99/Zb+K5MuqbokunxqWGH/l9rl/5K776mYXj95lsgE5dzdFCZSSmMvGZdtYAb7zaEjlBCvEJzELjjh1g20y6x0LW0/nhIk5fuIbTl+6w+kwP9xOTEfx3Am4YtkP3lmK4tLCL2L7xpPy6srj0YnERi1IRIo75Y5//NQQE3MA1PT0Y3P8XEew8wbcaoJdNExYuA0eW7IFblJjOSmnA0ir4xJ/4avkpMa2ENNBFC+s2aKvSipSn/TAbdMqJw2b3Q1gi3Nc1pBi1RF/5PWlOQ/16aNq4ahMz54Kv4ixzgx1fen6m5E+K8SSd9XYf/Iu/fk9Aim0XTLRRLB2Mf5NxLDQLep1ewusdDZlQlZAVEwuv40E4/Mc/8A9MxLUcXbRqY4ImStk9F+d++g0nH7SGfTvWNw6LxJ69f+NkIPub2PtoaNYSbRsrtnELcfm4HzZGNUDfrg2R4heA9Ycvwz+yAB3szGAiS+b8TAT7/Y29RyPxu3Cuf/HYwBTWLUo3XrJiorDnwAUcOyvdZ35DWHcwRkOVpnVl4uOV2xIDOtRTik/I9SKW51rBVFbuMlPgfSYBl6/dxpXkfDSo3wBZt9MQd+0uHjZvhVa80/04H3EXr+Dw8RDp/vh5ClC/pWlJuhRl4NzvVxEZdxsRiTlooF8fBekZ7DxpSNc3RYcmPBwrA7v9sfdmQ1ZejKE0wCxc4xK89knpztyVjHpoYtYcpkoFqSTt7bs2RZ5iupV6VjqoZ95U2q8kjXtLO88Wlcdb88i+I1o82Vk2QVOFkpd4bAdsnbZh3XVDOAzshhG9zZDqswdDh3lgZZiiGfEjpLFK/2h0Gnw2eqDXeG/4Z3L/h0g8eRaz3/wSs/2UW50Fd5NwJCAVCf4+GDHcC6fusPohKQJBN6RweQlYOXYRhs6PQFY3dm12fTvdf7Bu6nL0UvnEdMEldg52n5tSmpfc58FtcPNXHmKrbHz8b2TAZ5MH7Mb7IZyf6nEOYvYfh+u4PfCUGXgVMr+AaPiwuHNSoxPgw4+Zi0kXzxm7czXMR+/A5mhD2EnXNYg6i4UsLk4/JEtDqUVIjeV/l4RYfniXCZx0Hp/YHOkbTrmI3R2BI3G50rEETyuXRXCceRz+ec3ZNaxgq58D77U74FgqbiVpn8jSnsd9ffQDwT81LhBuU7/F1KN3hWNCJCtT/FKvbavGCsL0CHHHD+O91f4ILjRFn27t0ad9fVz+zRezvmR+SkmYj/TzKfC7fYtV6gcwa0MshDGKJ3lIPh+CVUuO45iSweBjZKWwCv1OLsKOn8K8vTeR9eQR0i+mIln20eC7V7H+cy+s+i0LjTqya3czQ9ucBGxcvR9uJ9NYySsh66If5q0OQCgU7vPkcfglSgEEKhmfv1IQnJmBIB6f3VchjHgWMnHwD8Di70IRK8ug+fdwOfom4m6K5To5ifVA2XFodArSBa9MeH+zC4u3RiGeiQy/rk0rXVYvBCqnSxFLK/53SVnCYdbNNOk8N5GcJVsMm49kJoTBKflMYhQoSMMB4RohuFzYGFY8rfTyEHrED4u/OI4D1xU/3V+S9qEsjeatjkR8HvOWPav/ncG5GlQ8apZBBJ9z2t5X/CprYT4SQ5l4zDoOH8PB8D41ESNkk/lX/ODofAiJ46YiaENfyD+2mhuNRYM2Yl3XdxH/S39YCaVV9hEzdnct++LHg+9iWiexqVXAzjNu2CF4dxmHcL+SL16mHdsG85kRbM8Yk9Z+ip8mm0OYueD5pH4+fP67HCN/bo4VJz6FW5+SZlvs7o3osiQJSw+shPurvG3Ewi6Zj5G72f1fY/cv7yXkIzuXfzdGOmT30Z/dR4LrVAR+31e6b4ZCfBL29pfiKcZnMv+0UIf+8Nz/LiZJH7flAuc48yKw6DOkzlewBwrzgc7o43DZvAaHxzaRPEXSAgMR1NwOLooGDkxQlo1dDfc7YxAYMQKO8lqPPac27DmNmorb2/rCXKGxoPYZCvH/EqN2AxO3fIa9b/IhKJGC62fx9iAvHO7CrnGSXUNqIZakvSmmbpmPn9jfCCRfxGQmovswBkGRz//loHw4j3/PafmC0VX+2KDGqBpE8DmnMdI3iwvykRAZim2s4ky3HYgvPy+xAMuLCMDM76LQioV3Z+HlrfTbUfh6SQDiR43BD+MtIHYgWOX43mHs5bsd+2DFPHu8LE3m54Wx82yIQtaA4fCaZgUx++bj3OZdWM+yGZp0xpzPh8C5NevLCh/o479n4NiK/dh5tzMWLHPGoBbcj1OI0P378LVPC8xZMwrOrbgfC7uMhW08EJsWdUc7WeZ4XIi8In0YSXmCx2cWi09LFp8VLD7yAQeF+PzI4iPGk8XnfRYfVhWZ2Npjydw+ELM2F7jjWHwkDQ4zpmBJv5L8nnXBF+9tTcDby2ZhQkfJUyAfl8+nwaS3FdoqFI+HV0Pw2cpQZLL7+Zndj7wYXA/FmBUh6KdyfhHpvl5xxs+zOkOsylia7GZp4g8MmuGKBf1KJmsfsritZ3ELbmeP1V/0ga1QzSikfUtbLFjsJE/f9AtMzLZeFeYldwt5hAwiqpeTO2Deerowtq9jOR9W48+gwHkiq7wUhIkRfJpbLtnA/VMFYeIYd4PLu6zy9Y9CcKkpKjt4npwqFyaOQdfB+HQGy1pXTsPnkuSpgNm4SVgvEyYOH09KjcbO3ayrMnMMFvRWGk+A7TB7uDDxWBksm1l9hGyhl6aKgjAxgk+fRnCxGB+5MHEqiM/eX0uEiWM5vD8ms21aXAYrCpph1r+/sjBxjKwwwpndyJ0kJMq+P/80sLTasTsXxW9NwmYFYeIYdByMBQtZ3K4cx5GQ0muFXDYoCBOnrR2mjmNFrqr3VJM5chhvvLdZdNN3Yd7WmzBxGQ73eYqmyfkIDWKCgp54e4SCMHFaW2NQX1YZn7ql1LsXaNcHaxaVCBPHqDc7R1e2cz4el7NFvxIMMejt/qIwcWTDeddv4Nh1oIeLPQbKhYmjjz69u8OEz49dl3WxHuGhuqlk3RJhksUnU4qP0ki4YnwkLzksPp/PkwkTpz5s+nVBD7YXnC67fkUYoscAZWHiNOjcHr1ZZs5KyWXpXAUyb8LPn3XRBgzCxwrCxGnQujvGurALJ4Ug+B/F3hPHSkmYOK1622IQ21b5np4jNUucuvbFUrdxWMfcAtmKfiNTmCmZP2cg8Qofx2qOgltx8A9UdqmPzNlvEUi8U6r0wVKhIhfRQ5duPdk2FzFJpTPsrHd7Sj0ABZJTcYRtnPQfIDhI5foJ+azwMa7LxMEYTqN4L+Ispr5/CDvCVIa8BFh8ovm1K4qPEFgBNfHRbyBePyQDT1V/809U54pOeutPlSi4liSklYujBdSNftv1ZjULIyJZeYiT08tS+Y0O/Fk1FJru8WrSoo7Qozs+eKs/c33gbCvVmIbGKubPubyTycpSfeRdS8HlGEWXifvCn2XijmqjycxEjRm1Mdq+xLcpSC5V43XHiFdUam1GevpdoXJs9TgXUUrXZi7zMXiWDc6QDaOboo8rK2FXArBiSyRC1a4L0yw+6ZrER09X7P2ls/wteFSOh/msRye56uDh7bvC8gAHW1OpV6qMlbU4t5kgTy8ZLdBKSfgZevXFufp/SJyeDVbdMXumMxYwt277cgQtMoX/Dxux6Jhi5ZWLRF++DcTs8R4YquJcPeLYb1ZoaqTYTq+YAg3fk5h2W6z2/T22lbr20PFe2MF+M2tR8mlps9Hvwn+LM7pc88O00YvQ0HEjFh5LRUlDVIxPcYXxEUNrBKu8S4tgWeQjYr8XRjqy3mqn+TCxEd3IjVUfDc7OlN6QUF+p/S7HwEis3Pzvql+Qqh4m5NUgnDWSjp3x5oiezNljzueuWND/EYL3/olj1xQSJJNV5nx7JRSrVh+Hm4rbfpb91sQIhqWEqDxY5ahh+cjKEPswfntKX9ttcygus99sDGX5oT6sRo/CmrdYv+9iIL5e8hPeW+qHYzEKlbGG8SnpaWlAUSUyUH4G/Hafwoestzpuxk+YKLhTOFD14oG8+1KDWFe9iU8D6euLl3NUxakcWFWp2TtSXjw12CBCDw7vjcSslsCRLRdZ30GGHgz4UAOfe5CtiSrlPsNsWyFwtWNgJM7ZuGxZiydqr70dqe7dFHoKerB9cxz+DPVAzN6JmNomCetnLseIjcmSgGgWn1k2QuBqpggRGzei1/xwYOIcxER6ICtOdN5zKifuatFVHvYsxWPRGMKpheqKRe2EzzdpD8YY9H92sGE9773nksDnxQVYhSYMNPR1xm7ZmihVt+HZLQJtoC/2ePn8jdprM7fGWXEoRB82I4bjx5+mYM0Me9g8vIqdq/dj/UWpQtYwPn1Kd+KqTlEGDqzfj41hgPOnE7F76zR4CW4UJlRD8UC9CuxOn4gtgh5NnkXkXjw121qv2UtwecsYOldO47B8EW5z2PbhOaOycw/KVmEyEhN5S88YvSw1WznatLWpYDgRlFj6vWnlUt8Qtk6D8ZPXp9g0ELiwKkoSXB4fPn35AuZSCuPhuYrFf/h4bJzdDbYt+VyY6Ewq1bJWj1k7c2FYNOjGv6KHConXxFa2XVtlIw1thBtByJzW0M4KznwS5XwMgmSLcA2N0Kod2/6TK1qpaQqrB0u3uPORLkyfdkZb1VHWMmjVig9DA/GlhqIqQM8QNv36YMlXozCSXffc3yni8NTTxqcaePjPP/C8Dji8NRATXm4GE0N9GElO/VhA5TBpYSIMw8eVMQeWflucHLAyJXHSQvTg9MYw2PFFuIeikS2okyEcBziybQQ8/SsjED6YrGLmjcxo7NvD+sEtX4WDpj2TrjaYxHo6abvD4X9f8iuHAtXh6fp6MFFqtbL4DOzP1EmMTzWMFpRJ4h2VQpDzQP3cVF4qwv8p504ScjSb07KxwlTW803bfQb7VCe+8xKwc3ccS/sRGG5fHUW9LmIMx8G2rGFzE95hsrxjih4OTElyohAUXYnhq7BAbDyZpmzmnHQV3ny+p4cFrDRcMmPU0QKvsbZjcOBNDYxyHuGh6nAhr/ylXRExPjqVjc9TkHVPubDm5asXWD5XFF9O8UjPztesHFuYwZm1y7L+jCptAl6QBr8/WcugSR/07lxBD6uGUsPFidHVDjOd2Hb/Xzh8Q/RqOnwI1vVmcrNoNYYuD4RPYAIiriTAPzACO9x3oMv4s4gplTusYHZ9G/pPOIQd/nHw9z2Lae9txKZ0Y0xaMQROSmZA5dEWUxcNhtkdP7w2bBvW+7JzXUlGRGAcfI75YfbbSzHbX2qDZkZgtv1yTPa4CP/ruchOTsaRjV5Y4Av0XGQjN13n8Vkrxee1MuIjrC96Wjq1wyy2idh6DCvZ/fL73BzICl7LtnDiaet7EMt2JiAxNx+JrJJa+P63cL+gridpBrv3WM3DerLLNkXA3/8i1jOBKWXIJUPfBrNX9IX53YuY/NY2uB+LFg09fP3g6rwa7tFWcN8xAkOroZdWVzHq0RnjmXAk/BaPy1K2sxrQDyOb5OPYWi+s8knA5ZgMJCSl4PKlqzjG509+uaksQpx2xnjodxizN0ciOCYFoRdC8PW6QMSxZ/62SycIlt+a0NgKI//D+suX/fHZ/wLhdykFcUkZiGPnDD4fiPVLj8NbZsyaGI3Zn5/Cdr8EJNwtRNbtFPj9EogD7CeH3haicQ+Dx2dEBfGpyjyLSWtzwdrR+1SIcL/B50PADW5N2luAL0cN3h8Cb1Z+8/JzEcfi8PX/QhGnrrPfugVGsOKR4HMBB8N4GkbCO6Yc4wk9C4x8uzOa5VzF+jW+OHDhpmjoERaJVcsO40ASS/u5vfFyLW271XxxYi0np1Hd2DYaO/1vi15MIBb8uhyeM9sh8Yc9GDl+NXqxym7oeL64NR8j3u0Gy1Jjwt2x3tMNbs0jMO1tDwyd6oUdyTZYsPlT7BitUhFXMFfS1HkiYo+Nw+SG8Vg4lZ3L2R29xntg5MyzCG8xGJNkuanZS5j6UVtE7N6BoQMXwcTeHa6r0tBr5sc4NNtK4S0KLD5eFcRHCsmR5knVwO6b9VS4U6rvjbthwfb+sLobDTd2vyNnnkasUGZMMXXDfLg7NcC+ZathZTMfVqN9kDhkBnyWq+tKGmLEjOmY2iEXPqu2YejbO7BOPhkvXVsFs9FTEX5gHCYZxGPZzI2iocfUQwhq0x8/+szBUhVz/PLS3qA+f07M1c6G5NOhZ4YerxqynlIoLsRKz6Jxe0xf6YoP+ukibr8v3Fbvx7xlx+H2rR+8kwwx0kHFJJtj1h0Llg2Hw70IwfDg662hCNW3wgdLR2GCpXKCNyi/eMDq/8Zg84yesP43Ehu/PY7Fy/ZjMTvnqoM3kdejO/rIlM7CClP6AKF7fTFv4U94b8lxbPy7EIPefgtzFdcJaRCfkvqb3WtZo8T16ovh9FQyULtu+HgcE8PrUcL9rvopBYLxXytbLFhkjz76V7F9xS+YOOMXLD6Riz6zR+MDXiWpYtgeb860Raucm9i7gadhBFLkswnq78ukrzM8PuuPQQ3SsHfrKdHQYwNrFDS3xZzlLO07apr20vmZK0kL7aYOfM+pCNm5Ug7QN0TTUqVOtgh3DAJvi4s3C1gPgRsjGBiXWNU9Ndz8Whia0ENT47JyTsk9Ghiya6qUDWUqik8VeMTOnc/Ore68Ujwqvj8RMQ3Li3NpZOkOXXb9ZzQhX6uoju85PX6EvEJx7ExPXx8NSr3FSVqEyw0OZnUWeivcZLoIujAy1CAjVIB4Lk4551O8x4rmcyqMTxUo4ot/1Z+3Umkiu0c9fRhpXjxK0qqe4jqvp4UW4WoBvIIUJ/E1rci5KPHw1TKaZCRdu9xKuuQeK674Kx8fjakvnVvdeaV4aCJMHDENK1HyGLJ0r4nCxN8QIXM1Ct367NFKk/gaVuQNhPBVFyaOeK4Kzqd4j5JXmTxFfDSGi0kZ561UmsjusXLFoyStqqVi0n7qgDgRxPOBv76IIIjqgcSJUfYcDUHUdVhvoKw5GoJ4hpA4wRguG7bjiTTfRBA1CR0dnWfsWuCtjbNxcvZLaKb2d3I10dUE6oBBBEE8e17IW8kJ4kVABhEEQRBEXYXEiSAIgtA6SJwIgiAIrYPmnAiCIAjNoTkngiAIoq5C4kQQBEFoHSROBEEQhNZB4kQQBEFoHSROBFENnA26KncEQVQdEieCqAbOBV/FkHHrhS1BEFWHxIkgCILQOkicCIIgCK2DxIkgCILQOkicCIIgCK2DxIkgCILQOkicCIIgCK2DxIkgqgn+oUGCqPU8zpd2ni30VnKCIGocQaHx6NihJVo0b1RjPjtea2hgBjTnX3t+tn0bEqcazOPHT/CIOaXtI3HLXf369dCqhbEUmtBqqH6tFBmZ99HJYRmyc/PRxLgh7Lq1xUvWZoJYmTZrxLaNBec8yFb6C6JakFXhBlaAyWvSwbPh+YlTYYp0QFQX/2Zmo0W7/ijrEf60ZQWmvucqHRFE7WLsf+bg2Mk/pSNlFn4yBWu/WSQdEVXmYRrw4Jp0IGHUFTDuLx1UP89HnIhnxtWrV/HSSy9JRyU0atQIubm5NORB1EoyMzOxa9cuLFy4UPIpYdq0afjhhx8o71c39yOBexelA4nGr7DKxk46qF7IIKKG07lzZwQFBUlHJdy/fx/16tXDW2+9hd9++03yJYiajZeXF4YNG4bmzZurFabx48fjxx9/JGF6FjTqyXpL3aUDiXt/A/lx0kH1QuJUC3BwcMDJkyelI5H//e9/6NmzJw4cOIDhw4ejSZMmmDdvHi5duiSFIIiaQUBAAN5//31BcCZNmgQ/Pz/Bf/To0ZgzZ46wz+HCtH//fumIeCYYOwANO0kHEjkBQMFN6aD6oGG9WsSePXvw3nvvCcN8cXFiayYkJEQosNzdvn1b8OO/T5kyRXAtW7YU/AhCm7h+/bowbLdz506kpaVJvkDv3r0FoeL5vHHjxvD19cWIESMEYeINMeI5UPwEyPodKEyWPBg69YFmI4EGrSSPqkPiVMvw8PAQCvPq1aslnxJ47+rXX38VhOrx48eC3+DBgwWRevfdd4VjgnhRPHjwQBAjLkphYWGSL9C6dWu5IPFhbFUmTJgg5GkaynuOPMkDMplAFWVIHgxdY6D5cLZtInlUDc3FKWUfxrV7G4d58PF7kXpgMsyknwjtIjAwEP37l21Fww0leCuTF+g//vhD8gUmTpyIDz74AK+99mxNRAlCkWPHjgmipDg0bWBggP/85z+CKA0aNEjyJbSKorusB+UHPL4veTB4z8nkdaCegeTx9FSu58QEyrXtZPQKeoKlDtRKqQ3Ex8fLe1NRUVGCn4mJidCb4kLVtWtXwY8gqpOLFy8KPSRuVffkyRPJF3j99dcFQeLCRNQA+NBe1mmgWByJETCwZJWIs3Tw9OgUJ3sW8x5RsedtHJpoVu5awDSvcTCfVIy9SYcwuS2JU22DW/1xkeIuPT1d8OvSpYsgUh9++CGMjWlBL/H03Lp1S+gh7dixAzdvlkyg9+jRQxiy46LUrFkzyZeoMTy4CmSflQ4kqmENlI4L0zz1PaFgrKzXH26qHavxnri9fxLMSZtqLXw+6sSJE3KhksGH+3iPiltMEYSmcEHijg83y7CwsBB6R1yUunXrJvkSNZa8S0BuiHQg0agX0LiPdFB5dNyDi4uX9pOO5KRh3wRzvN09EE+WOUp+klh9xf0c6G0rdYQ7d+7g6NGjgkidOXNG8gXeeecdQaiGDBki+RBECXxtHR+2U7SgMzIywptvvikIkrNz1Yd9CC0j9wITqcvSgYQx0w+jp2t8qJ1zUjt8JxlEaDL8R9ROYmJicOjQIUGo+D6nRYsWgkjxYb+OHTsKfkTdhM9Z8h7S9u3bBcs7GbwBw4fsyCK0DpBzFsi/Kh1INHUCGla+blAjTqzX9FZrTC7eqzx8d2El6jmGM8E6jEkWkh9RZ+ELI3mrmBtT/Pvvv4IfnzvgQjVjxgzo6+sLfkTthr9GiAsSN2y4dq3k3Wt8Abhs2M7MjOx66xSZviproHQBk2GAflvJQzN0PJOLi5XFRv3wXfAKHfT/YgUCi93gIPkRRF5enrAQkvemeK9KBre64oYUfA0KUfvgrxH66aef4O/vL/kAHTp0wBtvvCH0kuzsns371ogaQPFD4F9v0dRchm5j0YJPz1TyqBimPe7FgU+WwlGmQuqG7yQT8iO0vokoB26B5e3tLfSmzp8/L/lCqKw++ugj4TVLRM3l3LlzQi+Jv4lEBn8tFn/XHX/G/E0NBCHwOFcUKP5FChkNWgJNX2NC1UjyKJ96qfvC8aruStZfkrCwBG/zHLmeKB5zsVqQiF7j2X53SyZMfNhPITxBSLRv3x4zZ84UhvxCQ0PxxRdfCK9K+vnnn+Ho6Ahzc3MsXboUyckKXX5Cq+GvEfrvf/+Lpk2bCm8TkQkTt9zkL1jNyMgQhndJmAgl+Nsimg5h3Z/6kgfj4R0ghzVanxRJHuUjzDkFe42DPzZhKespcUSDiMPCvsx0/IY7H9bj35pywd6kTRiqYw4zmnsiNOD333+XW/xlZ2cLfr169RLmp2bPni0cE9pDfn6+YGm3bds2REdHS75Anz595MN2bdtWbv6AqKMU3BAX6SrCXxzLhasCKveGCIKoAtxwgpsYHz58WBArGSNHjhSs/caMGSP5EC8C/ky4YYPiJ1asra2FYTtu2GBvby/5EkQlyI8Ve0yK8E9v8DeclwOJE/FC+Oeff4QeFe9Nyb5HpaurK7f24z0r4tnDXyPEDRv4EJ0M/q0kLkjcmIWvSyKIKnM/HLgXKh0wuGEE/8w7H/4rAxIn4oXD3xwgs/jjcxwc/gYBbu03a9Ys+qxHNZOSkiIYNmzatAl374oWVfzDlFyQ+LAd7yUZGhoK/gRRbeQEsl7UFdGkvOlglukaSj+oh8SJ0BoKCgqE3tSpU6cEobp3T7T0eeWVV4RhP+6Ip4MXcy5IW7ZsQXg4a8VK8KE62bAdH8IjiGdK1h9MmAYx5dGTPMqGxInQSnjrngsVf8cfdzJ4y54P+/3f//2f5EOUB58/2rp1q1IacgtK2bDdq6++KvkShHZB4kRoPZGRkXKLP/5lX06DBg2EYT9u7Uef9VDm8uXLgmHD5s2bJR8IQ6NckPinzWlhNFETIHEiahR//vmn0Bvgb6O4ceOG4MffTMCH/LhQ1dXPenBLSG7UwAWJ9zo5XMC5IHHH32vHF8wSRE2BxImokfD1Urw3xYWKLwLla3M4/C0UfNiPvzW9LuDp6SkYNly4cEHygfAVZC5I48ePh62treRLEDULEieixsMt/LhQ+fj4CE6Gq6urYO1X2z7rcfbsWcGw4eDBg5IPhKFN/hkKPmzn5OQk+RJEzYXEiahV8B6EzOKPv0KJw82iZcN+NfWzHvyN39ywgQ/bPXz4UPBr3bq1fNhu4sSJgh9B1BZInIhaSVFRkSBS3B0/flz+Pj9uLs2H/bhQaftnPfgb37lhAx+2S0hIEPwaNmwoFyQ+bMe/p0UQtY7cIBInovaTmpoqF6ojR47Iex4DBgwQRErbrNf4cB3vIfG3gMsYNGiQIEijRo0SvptFELUS/rkNvhaqMIXEiahb8BeZciMKLlR//MEKgcSkSZMEoXpRn/Xgw5G8h8QNHGRwEZL1kuiz5kSt51EWkM3KZBHbMkiciDoLNyyQCRVfS8Xhpuh82I8bUjzrN29zk2/eQ+KidP/+fcGvXbt2ckEaN24cdHRkH1ojiDrAw1Sx5/TkAYkTQfDXJMmG/bi13+3btwV/GxsbQaR4j6q6ePLkiWDYwAUpLi5O8GvcuLFckPgb2tu0aSP4E0SdpCBRECgSJ4JQIDExUS5UJ0+exOPHjwV//nE9LlJP+1kP/vogLkh+fn6SDwSTb5ko0WfNCUKB/DgSJ4Ioi7///lsuVH/99ZfkC/lHEiv6rAd/wSoXJP7hPhn8b2SCVNvWXxFEdULiRBAVwIfiZCLFnWw4rlmzZoJIKX7Wg3+CggsSd5mZmYKfpaWlXJD4sJ22m7AThDZA4kQQlYCLj8yIgruMjAzBv3PnzsJnKfhiWY6JiYlckLjj36ciCEJznos4ZT+4i/T7SdIRQdQO4q8m4rx/MP46IzpO/8H98Cpz/Yf0Q2fbmvk2CoIoi+aG5jA1ai0dPVuemzjF3LkoHRFE7ePSxSsoZv969u0m+RBE7aOzqd1zE6d60pYgiCrwct+uJEwEUY2QOBEEQRBaB4kTQRAEoXWQOBEEQRBaB4kTQRAEoXWQOBEEQRBaB4kTQRAEoXWQOBEEQRBaB4kTQRAEoXWQOBEEQRBaB4kTQRAEoXWQOBEEQRBaB4kTQRAEoXWQOBEEQRBaB4kTQRAEoXWQOBEEQRBaB4kTQRAvHv7NU3JVc7UM+hIuQRAvHL2sXDS8cVs6IipLobkpCs1MpaNnB30JlyAIgqjTkDhxUi/h8PajOBWRJ3nUZrIQ9vNReB2Mw33J58Uh3cuJeDyUfGo1hfE4zfLZ4eAsyYOoSRQlR+Hcb8GIuyN5EM+U2i9OhVmIPnEKXt9uw39nbcMP20/jXEyWcmWYFgeP/+1AUPJD1L6RW1XSEf3VDmw6m4aCiiL7zCtTdi/L2b38nox7kk+tJjMZ51g++/bv9DqQz56S+ym4yASAi4Do/kZEdCJu/VskBXhxPEiNhfchP9zSsFVXdCMYO7/ZiZ1nUyUfojLUanFK/X0H5r76DqbP3YZNG07hnPcp7F61Af8d8Q7GTfwFYZlSQEI9rDI9u4oqU+L5kRsThENMALgIiM4XXt/9gu8/W4VV2/7GrUIpYGUpzMbNfxKR/hyHCx5kpCEuIQVxKfeRL/kRmlNrxSn1xDpMn34UYUaOmO31C87cOIVA7v7ZD8+fp6Jb6n5E35QCEwShVbz+3y+w5ifuluCrbz/ExKEWyAr1xc6D1/BAClMpbkVh89pf8HvM81Mn417DseC/H8LtrU4wlPwIzamd4pQZCq8VZ/EvHPHl3v9iooMJGkg/Qd8IHQaPxTcnfsGozpIfQRDVyr+/b8PcRWdR9QEtPTQ0NofdxOEY2Ra4d/YComrKnE89A7SyMoexnnRMVIr60rZWkfrnKRy+C3Re8haGWUieqhiboLm0q0RuMs79fBSH/05nB0zIhrrgo/dt0Ej8tYTcdAT/fgpnTyTIC6B5l0EYPX0YujWTPATScXrxBpy1+xgrJzbDTfY3XnsvC3/TqL0DJn06SiV8HsI2fI/dBcPwzeI+KAw+hd17g3Ejl/1k1gOuH4/FIGu51JbwKAthR4/gtOx+jNvC4Y2RGP1629L3XiWe8v4y43D42yM4d5MbnRih8xtv4f3x4k9l8W/waXgdOYerafyIPYtXB8NloiM6GAs/S7D0XbQBYQ5zscSlEW4opG+1pNeNs1j1RRC6L/0vRplrmDcYD+OD4LXNG2HCvbeCw9S34PqS8JN6eL7z8sbvfyWLhipmVhjm4oJRrGH1/+2dC1wWxfrHf6jg3UAxBEnAO6YYYR0xNdTS/l4qwVK0q5pmmpVh53jpqKl4TpKZqSUn9eT9kpiJFJbgLeBkSKKCmAgqCih3RVA0/s/s7gv7vrzAy9UVn+/nM8zu7LyzM8/MzjPPzOyi5kb4dviuvo0Rq16F+60T2PXFPkWmNnB7ZSS8Kf9GSov0qIMI3PJzUX46P/80vEf2RCuDHsA0mZdPclwgju+0QvpSei6UsKphC0c38i4l4LoQ0MNSIHLOn0RUWCzirinzfY2t0eVvvdDHtTWpNaIgGVEHEpGTdkm6nHnyGA5lNJKOWzzaC66PFGsOkdaxQ38gPkucWcLuye7o7+6EFsaG8DkJCPvhGE5J97VEB4/e6K+7p46rsfg+4CSaD3geg7rI9wSyELV+L052eA6v9W+O1KhjOHwwEWJVt1Hrrnj6xSfgUKJB5VO8KIT/7xyuSmYj5c3ZGs2la3I5ulWPkDVFHbScMnE2IpL8Dhjcr4McZCrn9uNfz0/BZ/tE5wPcuhSGXfN98OGKM/obKHJ+x7JBE+Dz6e9Id+gK97690NkqA+FrVmDykK8Rlq7Ek8hE8s4TOJQcj0Mzp2PcXGU0eSMFhzZ9jckTtuOU3ibB20iPC0PkhRSErZ6DN713I050/HcykLhzI2aPWYH9SXLMInLP4NuXXqWRahiud+sl56f+CWydPAVvUNiVal0wqkT+kg5iwRAfLNsUi/Q7IiADB2e+R4o5EHFSBENu49QKH7zgTUr9ZnupPO7dLBD5jS/GPU9hcj+jIMs38NwJUlIk38n7kSiCdfkZNBtbY6SIxQh5vWyivDJTse8IhZ0Ow5JS2obhMsjtqO14d5Av/HemyNfuxGLrGxPw7tLfcd1YXQj5PDMFs7+5hOauIj9d4XiN7uc9HdNX67e9W9ficZgU2JWD2zF96BxsPS03nvQz++E/eTaW/GC4PkiyFPU00g/+x27RAIrSbnGR5D8Hz0/cL7dFiYrI/F5QgIJ84VPPrfRaqQfWYZHvboRdbEyddUd0aW+NBhePYd+qr+D/s1KyOzeQGnsOcRfTpNOci0mIE+fkUrPvSmEi7QtBG/EFpRX8ZwGsHrHHw42v4eT6jVj0ZRT0HmfieswR+C/YiEMX5ZrPSYpC8KqN+O43SasVcyMN4b+fweVsqdEr3EDGrwk4lZmCU+v98dmmk5JiQl4mTh38EatWHMEFvQZFeQvcgs9WheNqE3t0oXLaNb2EKLEed5iUsl456hZ1UDmlIjFAPJ4u6FxB3XRoRSCSX/bDluDFWLFxMdbs88Okx4FTNOLX23DT0ArdP1qMH8K/gt+iV+E9eSSmrfgKa5b1Aa4FIvCokZ0WK/ywLGkw1hz4Skp7xW6KP6MrELURWw4Y2Q2372ss2GGDaUfWYo2Iv5Xir/CAddpBrAw4o+qAchG+ZDH8o7piEqXpO4tGz0p+VizqRR33VwgMN+w+q4EK5O/QF37Yf60DXt/6NTZvFbL1w3fHF2M4WSWHlFhqbvyyDrOXncGjM5Ziy6oJUnm8Z/lg87a34Z64H8u2/qHXYUusXoEF5zzwRWRxfrasGQ5rszNYuZ6UUFGGFHkdr5i8vp3xValt45CeNovHrjkbcQp9MOtocV6+OzAddkcOQgyb9InH1ndJPoUemLd7MWbNEPl5FTP+uwJ+k4HIT7dhv6Rt1YRh2fT9sJ37Db6j34j8bN7tg8EPZ2L/woM4pcrO7ajdWLb0BODpg52hfpg1i9JeRfI/Nh+T7IttrErJvDa5lYQz4eQ/5AqHtnJQY3tXvLbgI8yaPQLDn3PH0y/8H8bPG4+BjwAXfjoHaUm5cSc898GrmDTGVfqNw7CRmCTOyT3XXbZmCs5HkIWTALiPxD98x+OlUQPw4tvjMWuZN4aQaWkmxSom7PsoWI0mS322nI7P7JFwfegGorafxAV1UyiLvbuxO90VUxe9I+dn9hRMfdEeOB+KQydUe1cv/Y7vv09C2xEv483XBuBpKufwSW/B+zlS0rds0f+t4nLUNermmpNEMzRsqByaSOfpc7B0imqapmlXDH7pMToIQ7I0zaHQkKyyl0pOidg+2QdPk3/ogjy61qPbaCz+z2h0L5oesUD35wdDzFQcSjQSX1ovm47B9KDpsB3yLJ4lPz0uBem6hyD5GPZuIuVGHZq3q/6EjuMgD8pPJr6NOK+EVCcm5u/aCRzcST51Cl7uTeUwQcuemPTf+fBSTovJpId/H41WR+KtSc76U1QdnsLgYZT+6pM4qwQVQfJds+lV9FLN1TYbQmn0o65lJ1l615TAInm9UiF5mdw2on+XLLVWMzwxXDWlbNFhMMnrbfQy7OmiKH4U4PbBKwZT0E3h/pxQrr8j7HjJ9vH0Ml/844U2yhlh3wfDR1LiZFklJ+uEfxsnfw7E2cIO8J7oATv1vVv3wuuLPJQpt0rKXM2tXNzIKXbXycoppPtfV4XdyDFdvRXczEdenuxyLp1E4Je7cTi7GVxHu6KjMnfWoosrurc16Jgb2sNZVEt2MjKMjPlKQpbJH8dwGW3Q/9ke0Jthb9EJg14xCCO6T3gNLz1pqZwRrbriCXfyTb4n8Ug/vPZuPzg0Vs5hDocnqWx0dOpqthxE5KSmUN7onj3sVVOGFLdbD7of5bsOv3NVh5VTxbHtaAMLg87Doqm8zybxSmmt7nbxw5dbxsPn9AhsVX2zREMLubNLzCgxdSCmJe0M18tI20rzzL+lFsdPuiRZH24Nc3Ey/AQi1S7xhhw/XhW/2jA9f/vJc+vrXHKNr0UzI+t+ZPnuo861nwVuRBmUJ/wirkvK/RKuqC1ZgTH5wgaOvYR/Ahd0HXaRvG5WSF6mto30xHjpt4Nd28sBaqi8RcpNITlBjm97N0U/L8JduQ0HunYoqWTb6+JkYzCitxB7fYhYJOsUMSmd5JOZpCR6oUc3JcgolZS5ilNrRmOIS7HzWS1Ct8NHFTbEhSzEMtJQE7L8U8x7V3aLFpBiSm4EV29vjFIrBTW3ipVZXoVmuXKRcUEsYnWCo2qgVRZtbQzzYA5zSUcmIUNMcZuCjTWsDAfP5g0gJZN6HbpkGjeRW0xevv57XtezRZuga3W4B6/DRbuE9KKHtOrcMmzwSb/j2+lT8LyjZ/HDN2SF0WmqcrlVwQkTKpfuF+nJ8mJA5ApfTPeeY+C+RiBda9W6KSpoRFYNVf5upMsda7Om+lZKqZAZIk3HHNmOOSXKMwfLttK11i3RvIQiKgvKg1J/NSEvddtIvyZbOc2bmVbe9CQxVwUEfjy3ZH6mbkck6YzuLSpS2OKyiuP0I8IvJy/VIPPOnn5YIaZsFTfDW4QOxgxV2IrdE+Bh4sL9E6+8ikkzFTdvOhb86x14D7LV33CAfFz+9Uesm/0JPpparMzWBSmXTeIGrktrktWxN4yU3F86q7UKFBSvUZl36oiBDwGHvz+KM5mygsq7FIXg786Q9fUEOipTnHWROqicHkHnV8SY8iBOnqlgp28qyWFYMHI+/C/1xKTdaxEcvV12wdOlab3apGETedLh6RUb5fe4jLgf5j9RYsReWzR7SOnR7phYF00Va2qYD/YkGC/Pr8fehnsFd4/pKJLXFxuMp02uKvJqbmUj+bfUa+BlYNFUXhidFLDXaF6EW/OGiUP6ylINMrew7wo3955FrgspITOyXLuowtxcyfpU4pdHy3ZO6NhFcY9YorG+ViIKcDloC75YHwv09caHyz7Cgi9lN36oEqUucCNfDDfQPD0K62YuwUcTP8G8BXtxrpkrvKf1g0MJudQd6qByaooefcXKB7B1W1gNTGeRbjq4D/vJOnh91mQMpweuGY1sZWfqo1d9NLOzgXhd65TRdSsNQB2fyN+huJQia0pNia0HLaxg240GF7+lqnaSmQApg5LpZ+KKtFDiAQd7eRKsSF7G1gWrgeYtZOV36pyR9I1MN9k5dJX8uEuyhVm92IAMeyK+zCm5Ssv8XlKQhKiAJODxZ/Hi0E6wadEIjRsrrkKPoSVsegu/AutFtcjl348gKrsfXvtsBhb/+y3Jknzv3x/hHwtGwLXknHidok5O6zXzGIZJYnPOvrVYsjbeyAdOc5G4cwVWHqzch16vZ15UjvS5ERdf+w93NxcM7gakb/wVkZUrTs3SoT3cW5MfEG7wuahcRH76Db5VzorpALfnyZq4FohDRyqwyzCY6nq1wbbumIMIEGspHi7oLPIgKJJXWI3Iq1lHKi/5kTvC9DcQ5F5C4LK1OGgw69PscRcMJ//Q7t9roO1YobN7L7JgwrD/oOEW81yc+uGEMnirpMzvJXn5xr/HeOsaLhu+yqAiM9vwV81g11VsQziDqFMGW8GRjwu/JRSt/9wTCkTvlYBYytudJlZo284WLZvUN5jerJvUzTWnhh3g7Tcdg1tnInzhexg7xA8r1+zGVuGWrMBkj9EYN/OY0ZG8KTi6DpamQb5dsgmH4jNx49olhK/xxRszxVcpapsOGDFjOFpd243pw3yxNfgEImPicTb8BMJ/2I1lb0zAsoP3sMNp2JPy10vq+JZMXYvAg5S/g/ux0vttTA9vBncjC/WdX3oFXlR3W197B7PXkBIJp/LEiN8dxNa58zFq/u8l666bDW6t98G4qbtxSCr7Rvi8vhYnC7ti0gz1TjVZXtZpNSQvRw94T7YCotZitpKXyODdmD1sCvxzOkiKS4+WfeD1cVeYHaR26S3L5xTl5xT97tDOtVgwZA52GX8ZzCRsh47BW48D4bN88N7C/QiX8kN1QfKfvPBMUXutlMzLoJX9YDw+zKrmppNb2KJDD/KP/4zgA0nIIGWVcT4KgV9uxIE/jdzVtg36kHf5p1AciErAmd/CERYnvTiFlr36Y0h7Uk8b1sF/exTOxCXgXNQx7PRbjVXbk4y/m1ZLtP3bCPRpn4SQ5SuK1tTmvStP7y354mdEpdz7D+LWFHV2Q4S0dTf4C8ya3AvNM+gBW7IWK4Vbcww3XF6Fb/DXmOGhrIfUp4dJPipJfXmOoCHF0WHhPhorlg6GY9J2zB70KoY8MQVLDtpg0lYfesCVSEXQGKd1Uc+oTwMLeeG9of48ROlb4JW06B7qXzR75m1s2TkBgxvGYuXkOZg+9D286T0HPtMDEdd6OAa7qBMsIz8mUtH82XrPxPr5fWARvhtL3qD8vbER4a1HY/1/38MIeVZLn5a9MCPYD9Oet8CpJWLjApVnqPidH3adbgmvFwy2OwuchmP+7tnwyAzAbKns2xEuvqu4YwFed9GPLeS1eYeJ8qpg2xAld5vpB98JPXGbLHeRl+mTA3F7yGys+fpV9Hi4pOw7T/DFphUj0TlZls9kys9k+t3sT3/HdY9h6OOoRBQo9zSGRQPxNQly6vw07YrXv1mMSR4WiFy7Aj5Sfr5GZEMPzNtG91SiVUrmZWDrOR0rVtEzopxXP5Z4cgI9ez0aIGrrOvyLOu1/+R5BRveXMX60kxJHReNO6P+2K6yyz0kvzK7zD8dVXb/e0B6Dpstpnft5L9Yt3Qj/VT/inHkPeM/sjba6KqtXur3SoJ5QiOTqqeqXeteSapIq5yHl0JD6DWSLyLx4c0ZBdgounwccXnwVc5dNwVRlk8j4Sf1gczEcW5f+gjN19JP+D8x/wr2dkyuN/CxaNK3QQ1Y2Yhu5aOHm92S9ySi5ubghrW1oKE867pC8bpK86jdFM1M3oOl+Q1g0oborsanqDL519IH/MB/8sMpDUiRyXZtY/pqUl3j3RxhhDam8pSp0fXTttEbyoytrefIvV+bVT5X+E67YRv4XKYiGjWBe3nD7rwLkie2VDRoZ2WRBKGmJ7+I1NrHOao5kHFrwH+xr8X/48IMnIG+1KSYjfAf+tfYMhsz+GH2fas3/Cfd+RSglsWmheh93CylNTSmBpnI5NaeYBGQpSnkzVTEJdL8RdWdiJynXtYnlr0l5CaUk0q5AJ6drpzWSH11Zy5N/JWR+TyGlJDZClKuYBGT9SJsmSjOClLTuvWIS3MUd8eaDULpygIoCXE8Xa2Rt0KBB1WZCtMoDo5wYhmHuL6zR1qOZtK723YZjOCXWwiQXi7AN27Dh+xRYDRqAJ9sp0esYrJyY+xwaU5ZY52OYukAjdB07CZNGdQLij2CDWAuT3E4cSrJEn6lT8L53JxR9AamO8cCsOTEMo12qtObE4JatdZ1bc2LlxDDMPcfsL7ELgakKhfVqfiKMlRPDMAyjOXi3HsMwDPNAw8qJYRiG0RysnBiGYRjNwcqJYRiG0RysnBiGYRjNwcqJYRiG0RysnBiGYRjNwcqJYRiG0RysnBiGYRjNwcqJYRiG0RysnBiGYRjNwcqJYRiG0RysnBiGYRjNwcqJYRiG0Ry19i8zsvLTlDOGqZvcvXsX9evXV84Ypu7RzOKhuvX/nBimruPr64ubN29i0aJFSgjDMFWBlRPDVAMWFhYoKChAbm4umjRpooQyDFNZeM2JYarI8uXLJcUkmDt3ruQzDFM12HJimCrSsmVLZGZmKmdARkYGrKyslDOGYSoDW04MUwW++uorZGVlKWcyc+bMUY4YhqksbDkxTBWwt7fH5cuXlbNikpOT0aZNG+WMYZiKwpYTw1SStWvXGlVMAraeGKZqsOXEMJXk4MGDyhEwYMAAyQ8NDZV8gZOTExwcHJQzhmEqAisnhqkGzMzMJJ8fJ4apHnhaj2EYhtEcrJwYhmEYzcHKiWEYhtEcrJwYhmEYzcHKiWEYhtEcrJwYhmEYzcHKiWEYhtEcrJwYhmEYzcHKiWEYhtEcrJwYhmEYzcHKiWEYhtEctfJtvay8a0i9cUk5Y5i6x2+/Rkr+k0+5ST7D1EVaNWkD66Z2ylnNUmvKKebqb8oZwzAMcz/S2dq11pQTT+sxDMMwmoOVE8MwDKM5WDkxDMMwmoOVE8MwDKM5WDkxDMMwmoOVE8MwDKM5WDkxDMMwmoOVE8MwDKM5WDkxDMMwmoOVE8MwDKM5WDkxDMMwmoOVE8MwDKM5WDkxDMMwmoOVE8MwDKM5WDkxDMMwmoOVE8MwDKM5WDkxDMMwmoP/E66GuXPmL/qjnDAmU68FuXYG4y5q5XdOkzwZhjBrCNTvxGPzisL/CZcpwow6VXYVc6VhLC67B9Mx2oeVE8M8UBTgwuFQ/BQQgzQlhGG0CCun+4Csk0eoM4nEhQIlgKkCBbgSLuQZgejkPCXMEOrAQ6kDD02io7pGHpLD92DH+iRkKSGCrPBdWOyzHNsjS5NJDVOQhJ8WLsfihUdwQQliHmxYOd0HpJ3eRZ3JCSRnKwE1RgHS4s4i9sI96qBqhcs47ivkuQ3LJ21FxDUlWI/LOLmMOvBlMQ9MR5mddALxcYmITUpXQmqAvAycO3kWV3KUczU3MnDxWCLif7uK7FwljHmgYeXEqLiMCJ/VWLotRm9UXSdpb492iMb2wLN10DqqOA4v+mCe3yx8NNxeCakBLv4O39mrEfCHkVGWlQteWf0+5q1/Hi5NlTDmgYaVE/Ng4j4Az/UliyEgCAcSlLAHGfMWcOhigyb1lfN7QBN7RzhYmytnzINO/fmEclxj5N+5iWu5l5UzxlT+SiuE2V9AxqmfcOSkDdxedIV9E+ViciTWL/0JN9q7wsE8FZEBgdi84zDCQk8i4YYVOnaxhOFjfvNCNIK/3YU9Qcco3jGcTW0IGycbNLcQi+SHERF5Hmf/uIjUBuYwz8vAhdhEnLtmDgeHFpD6rNwMRB/ej6D/huAX+r2URuJdNO9gj5YNpVsoZCDii/X4PrsdnuxYH1fCQ/Hdf4Kl30SdyUfLLg4G8RVE+sFB2Ln5IA5JcW+g/sNtYGdpUJJcKm9gMAK2yvHCoq/gr6Z2cLCREzVrRO4hM+lYTeFVsU0rC2e3RiC2dS+M82qH2J/+h7DrrfF0XzvQzxSUOOiEfmM7oKUSqiMrLhK/bP6+SI5h0Zmob9Ua9tYGhVLX0W2y0lbuwo/7jyGhURe4PEJxS63DeGS2sENnu8ZSMjdjjmD7un0Ipt+WKr+7OTh3NAxB236U4ol8SfKztYddC7XGuYWkX0MReVG/bDfjQrFpxf9wq2t32DcXIXk498tR/PYHtQHRDtRO3SYIIY+DO3/C7r3hsjx+u4jr9VvB4ZFmcpyCJETsicSpU+dx+s9rMG9kgfzkJCmttEb2sLcSsTIQ+dVWBMQ3RffurfTbrlS2Q9izVm5Dctuth+Zt7dBSFlERN0/ux5pVcWj0ZCfY5J7Fgf/uwS4pXyTTRq3hpMtTAxqZtyrZRpiyadXEFk0spAZS47DldL+Sk44jUdG4dj4a62cswaajGVLw7dRohPgvx+fbEvWmqwr+3I/Pp63Dgast0eExZ/SgUXJ26DoERIoFgDvITozFyT8u4YqInJmE+D/EObnEHDmd3BhsmvIJlm+IQbatI3pQGu2aZyM6YBt8p+1CtN5MTQ7SDpzF8bQkRH6xFHO/ipR3ht1Mw/GgXfD9ZD/OGS5rXRXloPT9TyDF3AYdnFoi73QoVk1bgoBoVUmuRsJ/yhKs+j4VTbtQOR5zhG3mCayf7YelO/XLXCa3KaZTb3j+Xwvg6B4ER5nyywKc27YcM3w2IiDmNqydnNHBtgGyI4Pg72Pk/kV1RHn2WYfg87epD05ByIUM8dqVdP2okTrMToxAwPzl8D+aigt7/DHn76G4INZhSpVfKg78/Z/wXXoEFxq1lepG5Oti0B6smrIKP51XopXB7dQEymsE0rKL91nfvKK0AZ2LjEDw+j3YEZ6KG0q0K3tleYTEN0E7pV2Znz+CHb5L8OmeJDnS7RxcEb+PT5FOs+MTi9K8kqF7kS8HyT9G4/iF6yApFZOXiECpbEGIvdmS7kH1bU7tbvNG+L63GoFx+vV2m9ru8agUXIvcj6V0PTg+XwqXZOq7CusPyzJmtA9bThqmTMspPR579v+Js+HxaDpyCv4x81l4DHgC/Z/pivrRETRSvAm7Zym+NH+fh9M7vsaPf/bDlC9fhoeLEzq6dEPvEU+ju3UzmFuYw6bnE3hqQBvcEhZDL0/M/vgFDKL0nurZWh7Fmt3CTcvHMO79F+FBo9KOzk7o/lQ/9LK9gp9pJHu7gzuedNDZHorlcSoaZ5sNwIf/fgMjhlBag/vg0Xp/4gjFz3XsQ/F1w/8cRKxcht2nHeHp54O3PbvD2bU7nhraG088fB1XH+qCzq3FeDcJP837GsG5bpjkNxEj3Kkczp3g4vEknG4dReC2a2jt4QaH1iZYTu16YkjfdnCwb4yEvZEIu9IEjw12gqUU07jldPO37/GvldFoNPBVLFzsiadcneD8hBsGPueKZskHELI3CRZuT6CztWJTFNVRNBqOeAcL5w6Dx9ABeMHZEmZiWEjXfzBShwOfao1Le4/h2NGjOJTQDmM/n4JXXuitJ7+C9n3g1k4nv79wq54Thn7wMob16yrVjciXx2N/IfqXSJxu1RXPdZdLVprllH8hCsFhqXAe/BzlX8hO1yaKXRe6d2B4Hga+7om/2cu2zV3SJB1HjsPrL7uiO91XalfUBu+SIvvfcUs8OpLuYdEaziINh1uSPB6dNB0fvNFPStPZTmcjqetFZ8XmIfqbL7E+oiF6z/w7/vHWE3QPqu+n+2FQ/6a48t1RhJwzx6PP0D0UkcvliMbJsHQ4vzsTH73VX7qPkGnqkWOION4Uj75I8em2bDlVHLacGJNpN2Y83n/JETqdhcaO6P1sZzqIRlq6bhRcgJvGdkihMZqYuvhsbk+dTmdYKp2ADutHe+Jx8o9fyZQD1LQfjKlzBqNj0T3M0fHp3nCmo+NXFOtBkByDiKPkPzMQA7uoJ3Qaw+4ZLwzvpoTFxSA4DnAeNxS9H5aDZBrDpU9fPIQYnIir4G4zWzcMH2dPae/B3sNGhaSQg+jQI8hGb7wy3g3WSqhEYxsMenEoKbYkBIQllLTeugzFuDGdi+vIQIYl6vBhJ/TqLQ7sMfzvY9BPUQRF8qM+NSJJJT+0gPMzLrAzqEvzbt3gQn72hXTq+qsIWazblkXjoYGjMPzJ4rk0yx694eZgMLdGbdDlSfLJikmrystUaTE4/CPVyTOjMK6//uSquX0/PDeOrN7zQYg8VdLqfXzGVLyp/s3DLug3gPyq5ompNVg53edYP2KlPz9PNGgsjzuvpOk62xbo+pQbdd5HsH7RHhyJU6bqKg0pu9w82eWVkZKdDVoZ9FswNydVQiTnFHWYBSmppEqpQ3FpW9xBGyHtShIpByrzX+mIPXlW3127A/FRleOp16W4pkMd/tChGGhFv/0mFLGl7aIvSMGFX8l374R21CeWoL0j/iYG4gkZUh7VPP58bzhaKCdGsH6kpUEdtoR1e5FYS9g9bFC7OvmVQYGubnJvKiFVJQeRm/fgOKm60WNdFOvSCHm6+5K7q4RVgYJLSYgiDfy4iz2MjaEcurhBSOni1esqRS3jaKuvzEQ9m0uCS0RapmFsRouwcqrD3FZ9Ss6y7xjMnDkAdpdCsd7nn5g82R/bD6eiQt3X1RgELl2CD0bMxLQxs2Q3bRt1WpVArPkofUTudcXaqd9A9kshK/Wk5B9ZvRpLZxu4f+9HLF3r0LS8rtsILbrRKLwbjapDEbA/qURHJ5F9HdIrUWT1GM2luYXcgUYVK91aJTcJR77yx0cj3sdkXd2M8UegcrkqZB3dg00hOWSNvIjeNkpgEXm48MsuLJ/8Psa/rLvvLCzfqVyuAuW1C/Mmcl3HZpZl8RpCcfkTi/cFrJweGMxh1/8FzFy/BIvme6GfdRKCSdF8vtPEryCkRcPfxx8BqZ3h6fdPrNy2RHYrx0jTerWBeeO2ku+59HOs27vcqJszokTvaRLWAwfDsz0Q/81RHM9uAWt35YKO+uYow/iRkBbyXVuUblnUFAVJCJznh/XhQP/5s7BMVzfbJmG4EqXS5NCAxD8S2W5jMGaAoTVSgAs712DBFyeAZyZh0QbdfZfg/ZeUKFWhnuGcgAF35c0UzlbGTFnmfoeV04NG/cawc+uHNz+ZinGu1BlviMEFE2Y50iKPIiITGP6mJ/p1aYkmZKHIrpwOxAQsbe3xEPnxxtatVLS2dZL8xKsVGSmbiLkjBo7rR/mIwN4fE1BgsC4Eq5awsyL/dDqMrmolpyBe+E4tpbLUJgWnIhEQBzz+pheGu9nAsqhumpSrUMumALG7tiEk0xEvv9Zbf51NUJCAiA2JgPsLeOWlbiQf3X3JVe3GEpY2Nkq7UK+vFZN2KVEKb/dwc2l6j6lbsHJ6QCgwNI/IEmha/GKPPldySqyb5ObI24ANuXkhqeofEHV0RD/q+LODTpRY8ylIikZ0gpz5Jl07oR/5x0Nia+SjpU2eHABPN+Di5lAckPbUq7FBh0E0Qs88ipAjhtuRC3Au5ChiC1tgeC+nEmuANU1urnFlXZB0CaQ6Kk1BVBD8A3LQYeIoDCGrsgQ38ku0E4m8VFwo47tPaZkmrgtSu+hLxlp20BH8L1UJ05GXiMNBZ2nQMBgu3Wtb4kxtwMrpQSAnGpsmLIH/tkjEJuXg5tUkRO78DtvDadQ5rjMcioadNmg3lLzzodi9MxqxkZH46cez0rqUXdfe0ig2cP2PiBRpZKYiOmAd5n8RabyDqgjmndF/ohseygzF0vfX4adwsckhBhHb1mHOlHWIuKysjLVwwcCJjkDkNiyeswdHIs/iXEKS9L22yF/2wH/aahyoSm+MlujtPRTtkISLJd4NMofz0FHobZWDiKUrsZJkGS1txojGT/9eAt9tSegwbjxG9Kj9jtKyQydpV97x9UE4EJeBm7kZOEfyWD77Z8QLa69SJOHAf0Opbu3ROvtPBAeIL5nrnPIRYit7OJMyR/geBOxNRFpuHtLiIrB90SoEnjYy1WZvj4HkXdwVhECq4+jDNAg4WdoOFILaxcC3RLuIhP8/1yHwcIy8+SU8FCvfX47A847wnP0snFk31UlYOd2vUM2VOn2kzNVb6Gq3BVkcL9rjYtBGLJ3yT0yb4IdVG1Lg4Dke015yVI30G8PFazz62eUgesM6LJ2/EcGX5Hl98x7PYuZ7vWF3dT9WiTReW4L1ka3g6fsKBpXoABtQx6UcGqJbu7Ggu6rmYqz7j5HTz4vGDl+xycEf/kGp6Pjm+3ilb3FJHV6YikUzB8AhLRTr56+G73Q/6XttqzbE4KZbX/SUl6XKR9zfCOZdBuCV1zpLsn3IvZX++pG1CyZ98Q5e7m+O+M0bqfMX+VyHHaet0e89H3wwRi1Loqw6EpR3nVIzN5xeNIZtb0z6ZChcGkdis88nmDbmE/juTEePf0zCaFcljgpzY1NuRtZ37kizrEmI2Cm+Yq52MUiTjJ+W6DfjHbI2GyDCfzk+GjMLH/nsxzW38Xh/YicRQZ+m3fDc33vDOjMGAVTHy5eGIrnojVvjbcay76uY5/sCepsnImCpv7z5xXcP4q17481lkzG8q0G+y1inMq8vFCY57vXuC/g/4WoY8Z9wzUzarWAqYgu4omwaNS6z4xPbkQuowyi5pqRLw9i16kCVx6aUR+nIOHIeBfp5MaMe39h/wr17qhq3aRXk4abUsdaUHCpH6fVWw4ht5CTe8tqVxF2q43yqY4vGaFKBbBbVdz36XSU2ZerRiMZJ/J9wK0xt/idcVk4apvqV04NBrSgn5v6GlVOl4H/TzjAMwzzQsHJiGIZhNAcrJ4ZhGEZz8JqTlpH3BTCVwfCLN6KVV8P33pg6hPGvIjFlwBsiGIZhGM3BGyIYhmGYBxpWTgzDMIzmYOXEMAzDaA5WTgzDMIzmYOXEMAzDaA5WTgzDMIzmYOXEMAzDaA5WTgzDMIzmYOXEMAzDaA5WTgzDMIzmYOXEMAzDaA5WTgzDMIzmYOXEMAzDaA5WTgzDMIzmqLV/mZGVf005Y5i6R9q1dMm3bt1K8hmmLtLMwrJu/T8nhqnrLFiwQPLnzZsn+QzDVA1WTgxTRW7evIlOnTpJx3/++SeaNGkiHTMMU3l4zYlhqsjSpUtx5coVyYljhmGqDltODFNF7O3tcfnyZenYzs6u6JhhmMrDlhPDVIFly5bpKSNhPYkwhmGqBltODFMF2rZtKykkNWw9MUzVYcuJYSrJf/7znxKKSSDCxDWGYSoPW04MU0kOHjyoHAEDBgyQ/NDQUMkXeHh4KEcMw1QUVk4MUw2YmZlJPj9ODFM98LQewzAMozlYOTEMwzCag5UTwzAMozlYOTEMwzCag5UTwzAMozlYOTEMwzCag5UTwzAMozlYOTEMwzCag5UTwzAMozlYOTEMwzCag5UTwzAMozlq59t6fx1SDhimbjJg4PuSHxqyXPIZps5S72nloGapJeUUBNwZTgf8UUyGYZj7lgYBpJxGKic1C0/rMQzDMJqDlRPDMAyjOVg5MQzDMJqDlRPDMAyjOVg5MQzDMJqDlRPDMAyjOVg5MQzDMJqDlRPDMAyjOUxWTilbvVCvnhnMzMzgtSVZCWUYhmGY6sdk5dTGexeubPaio0X40NtWDmQYhmGYGqCebBF5YUuSElIqKQj5PgB4yQlOSgjDMAzD1AT1bMc+jqN3d2GsvRKiI2Jx0TSe7GwxbkchPEcORBszJQ7DMAzD1AD1wgrnoI+hsknaAi/3uVj4618Q34WVXPgiUlDA405twLqJqSr5J4DPlgFB8UoAwzCMCiNfJU/BltF2GFe4CVe2j4WtoonE9J/dOGDTRSNWVnncr18lzwe2rAYy3YCptfOV+Foldo+sHCw7AF4vkK+El8oNir+LfpcOOA0DPLso4ZUgZTtg9zqw8BAw529KYDmkUH49PwP6zAb8nlMC7wXULj4bC5AosCoAcJVDtUEasHYDkKWcloXtIGBsT1muXiRX9znA0iHUKSjXGSBgOrW1P4C5VM9DrZXAB5l7+lXypBAE7KROwGD6LuEcZWqUJwZWVDHdz1AnHEAd4bRfSa1qXK9mnQZC/if1myYTMBrwmQVMfBkY9235Q4eQfwPDJ8m/8RI9cw1QVjmS44BwuhZC/j0lGzi+j/JCLtkULWAMUiIhpJgTSOFXKxeAj6nNijoqz+06I/9EM3LVILHfy7KJvawEMLVGvRTloIikBARQN6U/fReOkH9S59XdCW2UEEZbBC0GBvUHopRzk6HR81Ab+v0q+m1Z2ok60y2fAo+RteOpBNUEohzPlFIOVxrFHj9MnehUJeBeQfJaFU15OU+yK9fcNE7KARL9YGDzKSWguiAr/zw91Jmpxe6bF+VLgQbhm2lwIhByjRRyfYetJkM+DAfCqK4/JAuTqV3q2S4M1xsxpyQcp7+ecFJZSClbP8Nc8j078j69Ogd1ruPFP3E9QZ0TudJIICthLfnvjJXP7wmNqCP9G2W5gXJ+D7HsQnlpq5xojEZUp5Yq11iRl5VBOIlTRkNy1RqNqI7dqzB9zVSeeptP9kH9hWHKKdDG6XH6G4AEZWu5WGuads5VGi0La0pslhhFCu1BJsSXRr0f0+iTtHrKIWAaddiDhpKbRJIzMjWSRXG8KE5IJp3QiHUVjVSl+OSmrS65PiDij6JrW4xsFkjYTL/TpUWI+4uNBfvOyeeb6Vicf0bplrCKS6HP82QBkP/ZrtKnBQMoPZDV5NVRPjdEKqPIs5IPNUV5LmMKTF0OMVgyVo6s/wETVfdI2C7LcG0p01FSPdF9Y5VzIeigb+U0dPKfOAsIJ6vQkC1Ul15CG9+hslMcKT7Vmy4vYi3Ci9LXKxLFDac8FbUHcl4UT69NXKb6p3KtDJZPw7co5SQXYjB1JGTiQ/nQpTWN4sRWdhqxDIRc36L09dobHQs5rRWWHd0zQMhSycdiJe+CrF+LyyvKakyWEiSbELXs6Tef7TGQnwmIad/FKplMpHwZk4mI95nqORP1HELPniG6Z1kkEUVtTZe3KOVBCF9B53S/BPlUD5Prx0B+Uj9B+WPKpt7YHWHYdCq0+D2n3hOw6SUzzHWXt5BPxSrs/HgghMqa26cezGYAX77hZHLHVxdJoQc2hB7eoKU04hwMHBcNkh6+GHr4vJ6ljjVRjqcjn4QVQB1/DFkfg54AFh2Vw/Mo3qoPAGd6iNRtWoofQg+EkQc95QLdm9JKzpXPM6mjDvqFHialQo7TsTgPontklLeIpKMDWcVDSG9+Sr8zcs98oTjIqpowjEbXpcz7SHk+AJwvI88pSp6NIcrxYznlyCd5rVXdw8mRZErncyntEmuCQgksoPtaA9Ir4yTgaS7AMOqIkknBDn2G6o6u7aMOpQ81bsNyJ1BdBtAzIZTUKIqTJ+p3TXEnFUvHAdQO1Mp81SBK6zXKezM5fXe6TxTF86L7ikV1CcpHCJUrXDmPJV8qJ7kEVSMIp87MltpWwA05raE96XfLgW59gF0G7auqSHI1bG90LGSdQPmbSPec+p0cnExlnkuDmXF0HkUdt/NApf1TPgOorH1oFBt2XY5bBF1bTPFEp5xJ5ZBkT1aa38s04KWw8ya20/xIqj83UuyUX3chE7L2kjdRfkhZqpMQg5ZuFM/vjCoeKULx7C0mRaxGPMuh4lkmebvRs5hM9ZxA7Uls+hEkRNB1agtKsyyirPoJoPZeBDWQxSQvr6+pvVI+RFxnSsxrcck0GQPEbr0a5+6+wsJbZuTodveTO49CLzNq9/NQ+Fd+cfhmL+lZKKROvXDz2eLw8xtQSLZlYRuKrwsTLpnCpfjkxq5G4U3dtXQU+g2Rw/1+049P44LCRYeLw3QujNIW8TfF64fr8hSmCivPLRJlo99dobJl7pDvOdSfymoQb9frdM0GhQey6ZxkQv2PJBN1HF0ZFx7SDxdOl+fN9FtdWGllFOUg/We0HMbu4deTwihvv2QZj/vhPiWM8r6ZykZKXS/e+XVyPE+Krw5fRGEiHH+jtJOUcNVvpeuU12TlXLgDlH5MavG5cHkhKHSluKW1CWPyygxAoS3Jxp1+c1PV7gqjqX5EWh9Ruqr45bnNo+R7/apOS+WM1gUdS+UnN3AhCjN04dTepfoXjuT+DeVJ9xtdPY/dXBwm3L635XDDssaskMPnBOuHl+b2TZbbxj56btThmWqZ03PkTnHajKO6VcUppDgfUn5Bz1u8wbMs0hRl+c8JJVxVz8bao6gf8Zwbq59hJEdRP7pwEVeUceoeVTwRfln//L5xdwOUTr3m4Q+/VoFNQcBYB+WEcHqBRpTki9GYsVGR51qyqiYAjZVz0Ah76nvyoZ9qquReYEmW0xyxMYJGnQnicdJBo8q1NHJ8jPI5sGiRQjsMHEN/Uml0azAi3reF/lB5/u8p+Vysq4x9HWhjsK7i1Ffe4BGgntJSsehzGnG3Vk7KWZMZSOk7WyonCo3o/qRQSm0TxgjaTHGpDhbNoLaitlS7UPvyki3cCm98qSSus0mWHwFWyjmovYvXDkS25mwla1q1HuM+mmRA/paz8rkEWbDryKICleVDshzUOA+XZb+YLHNTyDJilQvE+pkOsYNSLDospHzrrZBTHK+3yafnLFxt2SiMpXqe0FU5Kaeepfoh31j9jKX6SVHVT34puzEteVt6ubByqgJOKsUkQR2g9BAfBYx9GtfVyHpNI3ogxAOacsb0zqtGoLwPeI38A9RRqzZGRIl3och/hzokLeI6iBz5YgqqaIqNFM1u6oTakLLoU4pCzcpSXCmdhwR1NBPclOMKkq9LX0x5VZAYMU1J5RJrQWK7udplKh1xQi1tbXaiDtdQhE6PyX43R9kvgiIa6GYgkdoTeWJgEy52BKrLc055XuKUtk8VGKW+rrgUpWIHUn2I11sm0APzTYSqvlUkKG03P6lkOskF8rUEIw/aNEpbrWfKQtSP2OVqtH4ekuPo6qcNDX7Git2dkwAfMT1oLNOMUVg51QQ0kq9wG9RAox04Su7oizZG0J9dy8kXGyE6iAAN0pOsT+ooUunBD1NkmECDA6FQp9HIXG9kSyPmxaSAbRtSp0gdhuQelzvPaoEU0drpQHtKv7EufXKLlcsmQZ2atIGDlK3XYOoDDdw0sr4LKU3LplJszZOirGVLGw+MlEfsOWlD5ZEUYDpZI0bibFY2lLQhBXKA6rkbDeTeeppk3I06/G2S2ItIoMGU4N0hJdMRG1gEls1kv1KYUD/CYi+qn7ZUxp/JanSm54oUlC0pr2GzSMFVYtDyoMHKiSlGdPSqjRFZZH0sJkU7Zxw9bKYOK+8BA8X7OlepA6SRrJiRFJsv4CIvhBdBncq4fsBcGskvohF80fs+x2XLtcqQYlxM1uXE72lk/wON0nXpC/kpUUyCOjVpAwd1xMm3qDzG3EUqWwkTRZs0UhSB5wbgL2NlIZf8uWJxUUe+WSU3nVO/Y+RMdX3gPHXuJOMJ9tTh08BpKLXXPOV6IyXur1Qfxu4l3LTucpxKYWL9DCuaB6U8kfUppu0zo4GVE4Djy4BHnycrURlMMcZh5VSL5N9RDtTQyFJs5G/zGDk5pIjMG9TQleMilKmJmkJMnYj5jbX7yGoSo0B62L1olGqqbjI6TVbDeRbrRmJdZ/FPJON4soSoI3iMFKr6s0IJdG0LdXRzaPQ8gZSW+n2f6iD/V+BjUo6eS+gepODbqNIvWmM0BYrvJDpYsv6MbV++37AkBSLqIUys6ZVozCUxfEdLuBI0ICVFMv6GzOOVzwDhH1NHr6Tt3Fv2a2zak/JT2foR78ZNXU2DJ1LGZr/RALCM9woZVk61ing/Q2+bKaFbXBUdpo42jrKi2vwLdXqqBzrrAOBDnV9ZZFZxukB8M48GdwiivE6kTn7oVP1OvjSK8qxe+yFEnj9UplMqQoXK0UFeiAaNSNeSEpLWyKgcarKUrcGGZJ2qHiVQ2tpSfhyNlJVjY6QYWeQXmzzMSJHuItmZ0J9rG+rIpe/3fU2dclnreyaQb2hpkJKyMpii6yN2ZBBbqB3UFLpNOCbVjxHrqJGyLsWUDSunWsTdmqyQfqRg/ksP6iF5kXTYGurUaZQ/Tf1hWXqYp5KySqHOdtSnctwtNDp0JvPAcawSxwDdiHHRAuqcKf5a8mMr07NRHr1nKseEJ1klJkF5nqbk2UuV526UZyexhdFE1OXYV4FyDH1Z9t+dQX9oVD3QYI3MmfImlOfi2TRAIIWRRZ1LEOXV7S0Y3bxSUYTlK6w38cLuKrKghLIK/5bq91myGmzkOGradJWV/iqS1VoaBARQXN2Lma6vUf1TZj+jBEd9JssyikbZIRRPvFja/gOjfZ5mmfBPKi/J+xmqA/HirfgSidj4IHaGTnueHJWrXEiJT+sMjKOBjvgGYBYN8gJIdj7fk7zmFQ+gLF8A/Og+QTSoGkTtWDwLkuxEW6K66TYYiKmixpfqh+q0rPrJU+4R8B7dk+Jvpjgp1CbEBqNplI9CF2qjwgJjSkfZUl6z1LH3nHaNkwZMRt8bWSTepSB3XBVW9E7LAQr/HIXtRZryoKtw4HQUxhi8tyG5syj88OnieG0eReHKMPldKnFu+J6TeGdqkSq+eD/ntJH8qZ30nhOVRbznpHftsPweR5vJKMxUhwt3EYWkH0u85yQ5yrOPR3EeRJ6//LU4z3rvOW0x8m6NcKIcqjTU5RC/EWHG3g0qvIxC6jCk68be1RIuhsK7KXGEa0Py2nRCqTOD8khhBu8xlXc9M4ju3aE4ffEenF8IlZtkbGYkrbCFKLTVxSW38rjqOpXHb7RcD0XpkXMiefgZK38Zrtz3nIzVBbU1cW/Pb1VhihPvM5nRtV3UFvSulfIOnHCZJIdx3fXLIpz765Qv3Xtk5biwJfr1J9zQGdS+DN5dE21oM4U7qeIJJ9rjh1TWovcMyYlnWZSltPcDS71eVv2o5JhJx2PpvnpxhqDwuzhVWveTq8X3nEhj1ML3tu/Xf5lRTYh/D2FLoyfqVDFXWAY07M0SQ1+x9VbaplQ6YkuyiGp07t0IFY1fE1RHHmqyHLopuJqSUYXyThFFWxAbBxoZe7/mDl1XpsNKjXM/QWXJUtZeKyt/Xf2ZIo+i6VYTnrVKYWL96NqEmIqs0m7Be00t/ssMVk61QAnlxDAMcz9yT/+fE8MwDMPcY1g51Qb3+1QMwzBMLcPKqRYQb7YX3uIpPYZhGFNh5cQwDMNoDlZODMMwjOZg5cQwDMNoDlZODMMwjOZg5cQwDMNoDlZODMMwjOZg5cQwDMNoDlZODMMwjOZg5cQwDMNojtr58Guh+Hd6DMMwzH2PWRvloGapHeXEMAzDMBWAp/UYhmEYzcHKiWEYhtEcrJwYhmEYzcHKiWEYhtEcrJwYhmEYzcHKiWEYhtEcrJwYhmEYzcHKiWEYhtEcrJwYhmEYzcHKiWEYhtEcrJwYhmEYzcHKiWEYhtEcrJwYhmEYzcHKiWEYhtEYwP8DkNcX1mky7QMAAAAASUVORK5CYII=;" vertex="1" parent="1">
          <mxGeometry x="-260" y="110" width="291.49" height="430" as="geometry" />
        </mxCell>
        <mxCell id="a9pvka4E3gZ4myfUrUY7-21" value="" style="group" vertex="1" connectable="0" parent="1">
          <mxGeometry x="170" y="280" width="300" height="100" as="geometry" />
        </mxCell>
        <mxCell id="a9pvka4E3gZ4myfUrUY7-19" value="" style="rounded=1;whiteSpace=wrap;html=1;fillColor=#fff2cc;strokeColor=#d6b656;" vertex="1" parent="a9pvka4E3gZ4myfUrUY7-21">
          <mxGeometry width="300" height="100" as="geometry" />
        </mxCell>
        <mxCell id="a9pvka4E3gZ4myfUrUY7-11" value="patch-wise embedding" style="rounded=1;whiteSpace=wrap;html=1;fillColor=#dae8fc;strokeColor=#6c8ebf;" vertex="1" parent="a9pvka4E3gZ4myfUrUY7-21">
          <mxGeometry x="10" y="10" width="130" height="40" as="geometry" />
        </mxCell>
        <mxCell id="a9pvka4E3gZ4myfUrUY7-12" value="in-patch embedding" style="rounded=1;whiteSpace=wrap;html=1;fillColor=#dae8fc;strokeColor=#6c8ebf;" vertex="1" parent="a9pvka4E3gZ4myfUrUY7-21">
          <mxGeometry x="163" y="10" width="120" height="40" as="geometry" />
        </mxCell>
        <mxCell id="a9pvka4E3gZ4myfUrUY7-15" value="patch-wise atttention" style="rounded=1;whiteSpace=wrap;html=1;fillColor=#e1d5e7;strokeColor=#9673a6;" vertex="1" parent="a9pvka4E3gZ4myfUrUY7-21">
          <mxGeometry x="10" y="60" width="130" height="30" as="geometry" />
        </mxCell>
        <mxCell id="a9pvka4E3gZ4myfUrUY7-18" value="in-patch attention" style="rounded=1;whiteSpace=wrap;html=1;fillColor=#e1d5e7;strokeColor=#9673a6;" vertex="1" parent="a9pvka4E3gZ4myfUrUY7-21">
          <mxGeometry x="163" y="61" width="120" height="30" as="geometry" />
        </mxCell>
        <mxCell id="a9pvka4E3gZ4myfUrUY7-23" value="Dynamic Graph Controlled Differential Equation" style="rounded=1;whiteSpace=wrap;html=1;fillColor=#e1d5e7;strokeColor=#9673a6;" vertex="1" parent="1">
          <mxGeometry x="490" y="270" width="150" height="60" as="geometry" />
        </mxCell>
        <mxCell id="a9pvka4E3gZ4myfUrUY7-24" value="GAT" style="rounded=1;whiteSpace=wrap;html=1;fillColor=#e1d5e7;strokeColor=#9673a6;" vertex="1" parent="1">
          <mxGeometry x="490" y="220" width="120" height="30" as="geometry" />
        </mxCell>
        <mxCell id="a9pvka4E3gZ4myfUrUY7-25" value="FC Graph Construction and&lt;br&gt;FC GraphConvolution" style="rounded=1;whiteSpace=wrap;html=1;fillColor=#e1d5e7;strokeColor=#9673a6;" vertex="1" parent="1">
          <mxGeometry x="490" y="350" width="150" height="60" as="geometry" />
        </mxCell>
        <mxCell id="a9pvka4E3gZ4myfUrUY7-29" value="" style="group" vertex="1" connectable="0" parent="1">
          <mxGeometry x="210" y="390" width="247.5" height="100" as="geometry" />
        </mxCell>
        <mxCell id="a9pvka4E3gZ4myfUrUY7-28" value="" style="rounded=1;whiteSpace=wrap;html=1;fillColor=#f5f5f5;fontColor=#333333;strokeColor=#666666;" vertex="1" parent="a9pvka4E3gZ4myfUrUY7-29">
          <mxGeometry width="247.5" height="100" as="geometry" />
        </mxCell>
        <mxCell id="a9pvka4E3gZ4myfUrUY7-26" value="Association Discrepancy" style="rounded=1;whiteSpace=wrap;html=1;" vertex="1" parent="a9pvka4E3gZ4myfUrUY7-29">
          <mxGeometry x="42.5" y="14.893617021276595" width="170" height="21.27659574468085" as="geometry" />
        </mxCell>
        <mxCell id="a9pvka4E3gZ4myfUrUY7-27" value="Anomaly Score" style="rounded=1;whiteSpace=wrap;html=1;" vertex="1" parent="a9pvka4E3gZ4myfUrUY7-29">
          <mxGeometry x="67.5" y="53.191489361702125" width="120" height="25.53191489361702" as="geometry" />
        </mxCell>
      </root>
    </mxGraphModel>
  </diagram>
</mxfile>
